<?xml version="1.0" encoding="UTF-8"?>
<svg width="121px" height="119px" viewBox="0 0 121 119" version="1.1" xmlns="http://www.w3.org/2000/svg" xmlns:xlink="http://www.w3.org/1999/xlink">
    <!-- Generator: Sketch 49.3 (51167) - http://www.bohemiancoding.com/sketch -->
    <title>Untitled</title>
    <desc>Created with Sketch.</desc>
    <defs></defs>
    <g id="Page-1" stroke="none" stroke-width="1" fill="none" fill-rule="evenodd">
        <g id="GitHub-Mark" transform="translate(-290.000000, -6.000000)" fill="#161514">
            <path d="M350.609,6.445 C317.262,6.445 290.221,33.481 290.221,66.833 C290.221,93.514 307.524,116.15 331.518,124.135 C334.536,124.694 335.644,122.825 335.644,121.23 C335.644,119.79 335.588,115.033 335.562,109.987 C318.762,113.64 315.217,102.862 315.217,102.862 C312.47,95.882 308.512,94.026 308.512,94.026 C303.033,90.278 308.925,90.355 308.925,90.355 C314.989,90.781 318.182,96.578 318.182,96.578 C323.568,105.81 332.309,103.141 335.755,101.598 C336.297,97.695 337.862,95.031 339.589,93.523 C326.176,91.996 312.076,86.818 312.076,63.679 C312.076,57.086 314.435,51.699 318.298,47.47 C317.671,45.949 315.604,39.807 318.883,31.489 C318.883,31.489 323.954,29.866 335.494,37.679 C340.311,36.341 345.477,35.67 350.609,35.647 C355.741,35.67 360.911,36.341 365.737,37.679 C377.263,29.866 382.327,31.489 382.327,31.489 C385.614,39.807 383.546,45.949 382.919,47.47 C386.791,51.699 389.134,57.086 389.134,63.679 C389.134,86.873 375.007,91.98 361.56,93.475 C363.726,95.349 365.656,99.024 365.656,104.658 C365.656,112.738 365.586,119.241 365.586,121.23 C365.586,122.837 366.673,124.72 369.734,124.127 C393.715,116.133 410.996,93.505 410.996,66.833 C410.996,33.481 383.959,6.445 350.609,6.445" id="Fill-5"></path>
            <path d="M313.093,93.149 C312.96,93.449 312.488,93.539 312.058,93.333 C311.62,93.136 311.374,92.727 311.516,92.426 C311.646,92.117 312.119,92.031 312.556,92.238 C312.995,92.435 313.245,92.848 313.093,93.149" id="Fill-6"></path>
            <path d="M315.539,95.877 C315.251,96.144 314.688,96.02 314.306,95.598 C313.911,95.177 313.837,94.614 314.129,94.343 C314.426,94.076 314.972,94.201 315.368,94.622 C315.763,95.048 315.84,95.607 315.539,95.877" id="Fill-7"></path>
            <path d="M317.92,99.355 C317.55,99.612 316.945,99.371 316.571,98.834 C316.201,98.297 316.201,97.653 316.579,97.395 C316.954,97.137 317.55,97.369 317.929,97.902 C318.298,98.448 318.298,99.092 317.92,99.355" id="Fill-8"></path>
            <path d="M321.182,102.715 C320.851,103.08 320.146,102.982 319.63,102.484 C319.102,101.997 318.955,101.306 319.287,100.941 C319.622,100.575 320.331,100.678 320.851,101.172 C321.375,101.658 321.535,102.354 321.182,102.715" id="Fill-9"></path>
            <path d="M325.682,104.666 C325.536,105.139 324.857,105.354 324.173,105.153 C323.49,104.946 323.043,104.392 323.181,103.914 C323.323,103.438 324.005,103.214 324.694,103.429 C325.376,103.635 325.824,104.185 325.682,104.666" id="Fill-10"></path>
            <path d="M330.624,105.028 C330.641,105.526 330.061,105.939 329.343,105.948 C328.621,105.964 328.037,105.561 328.029,105.071 C328.029,104.568 328.596,104.159 329.318,104.147 C330.036,104.133 330.624,104.533 330.624,105.028" id="Fill-11"></path>
            <path d="M335.223,104.245 C335.309,104.731 334.81,105.23 334.097,105.363 C333.396,105.491 332.747,105.191 332.658,104.709 C332.571,104.211 333.079,103.712 333.779,103.583 C334.493,103.459 335.132,103.751 335.223,104.245" id="Fill-12"></path>
        </g>
    </g>
</svg>
