<?xml version="1.0" encoding="utf-8"?>
<!-- Generator: Adobe Illustrator 15.0.2, SVG Export Plug-In . SVG Version: 6.00 Build 0)  -->
<!DOCTYPE svg PUBLIC "-//W3C//DTD SVG 1.1//EN" "http://www.w3.org/Graphics/SVG/1.1/DTD/svg11.dtd">
<svg version="1.1" id="Vrstva_1" xmlns="http://www.w3.org/2000/svg" xmlns:xlink="http://www.w3.org/1999/xlink" x="0px" y="0px"
	 width="3250px" height="2600px" viewBox="0 0 3250 2600" enable-background="new 0 0 3250 2600" xml:space="preserve">
<g>
</g>
<g>
	<g>
		<path fill="#4D4D4D" d="M1604.103,1223.55c0.428,25.047-14.857,50.375-49.523,50.375c-12.17,0-26.744,0-38.914,0v-99.051
			c12.17,0,26.744,0,38.914,0C1588.54,1174.874,1603.679,1199.071,1604.103,1223.55z M1534.202,1255.954h20.377
			c22.498,0,31.412-16.414,30.988-32.545c-0.424-15.424-9.48-30.848-30.988-30.848h-20.377V1255.954z"/>
		<path fill="#4D4D4D" d="M1666.763,1204.163h16.555v69.762h-16.271l-0.85-10.189c-3.963,8.209-14.859,12.17-22.641,12.311
			c-20.658,0.143-35.941-12.592-35.941-37.072c0-24.055,15.99-36.65,36.365-36.508c9.34,0,18.254,4.387,22.217,11.32
			L1666.763,1204.163z M1624.878,1238.974c0,13.303,9.197,21.225,20.658,21.225c27.168,0,27.168-42.309,0-42.309
			C1634.075,1217.89,1624.878,1225.673,1624.878,1238.974z"/>
		<path fill="#4D4D4D" d="M1736.374,1222.7c-4.953-4.67-10.613-6.225-17.264-6.225c-8.207,0-12.736,2.547-12.736,6.934
			c0,4.527,4.104,7.074,13.02,7.639c13.16,0.85,29.857,3.822,29.857,22.359c0,12.309-10.047,22.922-30,22.922
			c-11.035,0-22.074-1.838-32.26-12.451l8.488-12.311c4.951,5.52,16.273,9.623,24.055,9.764c6.51,0.141,12.596-3.254,12.596-8.35
			c0-4.811-3.963-6.791-13.869-7.357c-13.158-0.99-28.865-5.801-28.865-21.648c0-16.133,16.697-21.793,29.432-21.793
			c10.895,0,19.104,2.123,27.17,9.197L1736.374,1222.7z"/>
		<path fill="#4D4D4D" d="M1770.47,1174.874v38.77c6.227-8.064,13.867-10.471,21.791-10.471c19.811,0,28.584,13.443,28.584,33.961
			v36.791h-17.262v-36.648c0-12.736-6.652-18.113-15.85-18.113c-10.188,0-17.264,8.633-17.264,19.104v35.658h-17.264v-99.051
			H1770.47z"/>
		<path fill="#4D4D4D" d="M1845.601,1175.015v38.629c4.104-7.215,15.564-11.178,22.924-11.178c20.377,0,35.516,12.453,35.516,36.508
			c0,22.924-15.424,36.508-35.941,36.508c-8.488,0-17.121-2.832-22.498-11.18l-1.133,9.623h-16.131v-98.91H1845.601z
			 M1846.733,1238.974c0,12.594,9.338,20.518,20.234,20.518c11.037,0,19.811-8.348,19.811-20.518
			c0-12.594-8.773-20.377-19.811-20.377C1856.071,1218.597,1846.733,1226.804,1846.733,1238.974z"/>
		<path fill="#4D4D4D" d="M1980.995,1239.114c0,20.096-13.727,36.367-36.367,36.367c-22.639,0-36.225-16.271-36.225-36.367
			c0-19.951,13.867-36.365,36.084-36.365S1980.995,1219.163,1980.995,1239.114z M1925.667,1239.114
			c0,10.613,6.369,20.52,18.961,20.52c12.596,0,18.963-9.906,18.963-20.52c0-10.471-7.357-20.658-18.963-20.658
			C1932.177,1218.456,1925.667,1228.644,1925.667,1239.114z"/>
		<path fill="#4D4D4D" d="M2044.507,1204.163h16.554v69.762h-16.272l-0.848-10.189c-3.963,8.209-14.859,12.17-22.641,12.311
			c-20.66,0.143-35.941-12.592-35.941-37.072c0-24.055,15.99-36.65,36.365-36.508c9.34,0,18.254,4.387,22.217,11.32
			L2044.507,1204.163z M2002.62,1238.974c0,13.303,9.199,21.225,20.66,21.225c27.167,0,27.167-42.309,0-42.309
			C2011.819,1217.89,2002.62,1225.673,2002.62,1238.974z"/>
		<path fill="#4D4D4D" d="M2084.541,1204.163l1.275,8.066c5.377-8.631,12.592-9.906,19.668-9.906c7.217,0,14.15,2.832,17.971,6.652
			l-7.781,15c-3.537-2.973-6.793-4.529-12.453-4.529c-9.057,0-17.404,4.811-17.404,17.688v36.791h-17.264v-69.762H2084.541z"/>
		<path fill="#4D4D4D" d="M2195.33,1175.015v98.91h-16.129l-1.133-9.623c-5.377,8.348-14.01,11.18-22.5,11.18
			c-20.516,0-35.941-13.584-35.941-36.508c0-24.055,15.141-36.508,35.518-36.508c7.357,0,18.818,3.963,22.924,11.178v-38.629
			H2195.33z M2136.891,1238.974c0,12.17,8.773,20.518,19.811,20.518c10.895,0,20.234-7.924,20.234-20.518
			c0-12.17-9.34-20.377-20.234-20.377C2145.664,1218.597,2136.891,1226.38,2136.891,1238.974z"/>
		<path fill="#4D4D4D" d="M2277.537,1273.925v-45h-63.109v45h-7.641v-99.051h7.641v47.117h63.109v-47.117h7.643v99.051H2277.537z"/>
		<path fill="#4D4D4D" d="M2352.811,1273.925v-12.594c-5.379,9.623-15.143,13.584-24.906,13.727
			c-18.68,0-31.555-11.463-31.555-30.848v-40.33h6.934v40.188c0,15.848,9.764,24.338,24.904,24.197
			c14.434-0.141,24.48-11.039,24.48-25.471v-38.914h6.934v70.045H2352.811z"/>
		<path fill="#4D4D4D" d="M2377.566,1174.874v44.432c5.658-11.32,16.979-16.416,29.006-16.416c19.529,0,35.094,13.02,35.094,36.084
			c0,23.205-15.424,36.084-34.951,36.084c-11.887,0-23.348-5.945-29.148-16.557v15.424h-6.795v-99.051H2377.566z M2377.705,1238.831
			c0,17.406,12.172,29.434,28.586,29.434c15.705,0,28.582-9.906,28.582-29.291c0-19.668-12.877-29.432-28.582-29.432
			C2390.158,1209.542,2377.705,1221.429,2377.705,1238.831z"/>
	</g>
	<path fill="#FF5A00" d="M1350.104,1233.476l-80.295-99.477l99.477,80.297c5.861,4.734,6.777,13.32,2.045,19.18
		c-4.73,5.863-13.318,6.781-19.18,2.049C1351.403,1234.919,1350.69,1234.194,1350.104,1233.476z"/>
	<path fill="#FF5A00" d="M1281.833,1178.931c-2.016,5.061-3.73,10.156-4.865,15.35c-1.229,5.158-1.988,10.373-2.271,15.564
		c-0.557,10.383,0.533,20.654,3.342,30.291c5.486,19.322,17.641,35.869,33.412,46.648c7.844,5.402,16.547,9.344,25.596,11.719
		c9.066,2.299,18.467,3.16,27.693,2.271c9.209-0.883,18.262-3.207,26.543-7.18c8.316-3.861,15.922-9.191,22.385-15.732
		c6.523-6.473,11.881-14.064,15.717-22.395c3.965-8.275,6.307-17.326,7.164-26.533c0.902-9.225,0.021-18.617-2.271-27.68
		c-1.16-4.533-2.77-8.959-4.734-13.24c-1.941-4.293-4.268-8.436-6.98-12.346c-10.777-15.764-27.307-27.916-46.619-33.408
		c-9.631-2.811-19.902-3.906-30.279-3.354c-5.193,0.281-10.408,1.033-15.564,2.264c-5.199,1.127-10.293,2.84-15.355,4.852
		c17.191-13.455,40.738-19.713,63.787-16.838c11.525,1.424,22.938,5.064,33.355,10.791c10.432,5.713,19.822,13.441,27.582,22.688
		c15.652,18.471,23.959,43.324,22.756,67.941c-0.551,12.316-3.467,24.551-8.436,35.916c-5.039,11.342-12.223,21.73-20.947,30.516
		c-8.799,8.709-19.172,15.92-30.525,20.928c-11.363,4.961-23.596,7.898-35.908,8.422c-24.617,1.215-49.449-7.121-67.918-22.756
		c-2.334-1.951-4.504-3.932-6.682-6.152c-0.543-0.555-1.145-1.154-1.561-1.623l-1.486-1.615c-1-1.111-1.979-2.248-2.928-3.402
		c-3.801-4.615-7.188-9.563-10.018-14.785c-5.725-10.41-9.365-21.816-10.789-33.342
		C1262.149,1219.671,1268.396,1196.132,1281.833,1178.931z"/>
	<rect x="1211.337" y="1082.497" fill="none" width="1283.331" height="290.006"/>
</g>
<g>
	<rect x="1211.337" y="792.492" fill="#4D4D4D" width="1283.331" height="290.005"/>
	<g>
		<path fill="#FFFFFF" d="M1604.103,933.545c0.428,25.047-14.857,50.375-49.523,50.375c-12.17,0-26.744,0-38.914,0v-99.051
			c12.17,0,26.744,0,38.914,0C1588.54,884.869,1603.679,909.066,1604.103,933.545z M1534.202,965.949h20.377
			c22.498,0,31.412-16.414,30.988-32.545c-0.424-15.424-9.48-30.848-30.988-30.848h-20.377V965.949z"/>
		<path fill="#FFFFFF" d="M1666.763,914.158h16.555v69.762h-16.271l-0.85-10.189c-3.963,8.209-14.859,12.17-22.641,12.311
			c-20.658,0.143-35.941-12.592-35.941-37.072c0-24.055,15.99-36.65,36.365-36.508c9.34,0,18.254,4.387,22.217,11.32
			L1666.763,914.158z M1624.878,948.969c0,13.303,9.197,21.225,20.658,21.225c27.168,0,27.168-42.309,0-42.309
			C1634.075,927.885,1624.878,935.668,1624.878,948.969z"/>
		<path fill="#FFFFFF" d="M1736.374,932.695c-4.953-4.67-10.613-6.225-17.264-6.225c-8.207,0-12.736,2.547-12.736,6.934
			c0,4.527,4.104,7.074,13.02,7.639c13.16,0.85,29.857,3.822,29.857,22.359c0,12.309-10.047,22.922-30,22.922
			c-11.035,0-22.074-1.838-32.26-12.451l8.488-12.311c4.951,5.52,16.273,9.623,24.055,9.764c6.51,0.141,12.596-3.254,12.596-8.35
			c0-4.811-3.963-6.791-13.869-7.357c-13.158-0.99-28.865-5.801-28.865-21.648c0-16.133,16.697-21.793,29.432-21.793
			c10.895,0,19.104,2.123,27.17,9.197L1736.374,932.695z"/>
		<path fill="#FFFFFF" d="M1770.47,884.869v38.77c6.227-8.064,13.867-10.471,21.791-10.471c19.811,0,28.584,13.443,28.584,33.961
			v36.791h-17.262v-36.648c0-12.736-6.652-18.113-15.85-18.113c-10.188,0-17.264,8.633-17.264,19.104v35.658h-17.264v-99.051
			H1770.47z"/>
		<path fill="#FFFFFF" d="M1845.601,885.01v38.629c4.104-7.215,15.564-11.178,22.924-11.178c20.377,0,35.516,12.453,35.516,36.508
			c0,22.924-15.424,36.508-35.941,36.508c-8.488,0-17.121-2.832-22.498-11.18l-1.133,9.623h-16.131v-98.91H1845.601z
			 M1846.733,948.969c0,12.594,9.338,20.518,20.234,20.518c11.037,0,19.811-8.348,19.811-20.518
			c0-12.594-8.773-20.377-19.811-20.377C1856.071,928.592,1846.733,936.799,1846.733,948.969z"/>
		<path fill="#FFFFFF" d="M1980.995,949.109c0,20.096-13.727,36.367-36.367,36.367c-22.639,0-36.225-16.271-36.225-36.367
			c0-19.951,13.867-36.365,36.084-36.365S1980.995,929.158,1980.995,949.109z M1925.667,949.109c0,10.613,6.369,20.52,18.961,20.52
			c12.596,0,18.963-9.906,18.963-20.52c0-10.471-7.357-20.658-18.963-20.658C1932.177,928.451,1925.667,938.639,1925.667,949.109z"
			/>
		<path fill="#FFFFFF" d="M2044.507,914.158h16.554v69.762h-16.272l-0.848-10.189c-3.963,8.209-14.859,12.17-22.641,12.311
			c-20.66,0.143-35.941-12.592-35.941-37.072c0-24.055,15.99-36.65,36.365-36.508c9.34,0,18.254,4.387,22.217,11.32
			L2044.507,914.158z M2002.62,948.969c0,13.303,9.199,21.225,20.66,21.225c27.167,0,27.167-42.309,0-42.309
			C2011.819,927.885,2002.62,935.668,2002.62,948.969z"/>
		<path fill="#FFFFFF" d="M2084.541,914.158l1.275,8.066c5.377-8.631,12.592-9.906,19.668-9.906c7.217,0,14.15,2.832,17.971,6.652
			l-7.781,15c-3.537-2.973-6.793-4.529-12.453-4.529c-9.057,0-17.404,4.811-17.404,17.688v36.791h-17.264v-69.762H2084.541z"/>
		<path fill="#FFFFFF" d="M2195.33,885.01v98.91h-16.129l-1.133-9.623c-5.377,8.348-14.01,11.18-22.5,11.18
			c-20.516,0-35.941-13.584-35.941-36.508c0-24.055,15.141-36.508,35.518-36.508c7.357,0,18.818,3.963,22.924,11.178V885.01H2195.33
			z M2136.891,948.969c0,12.17,8.773,20.518,19.811,20.518c10.895,0,20.234-7.924,20.234-20.518c0-12.17-9.34-20.377-20.234-20.377
			C2145.664,928.592,2136.891,936.375,2136.891,948.969z"/>
		<path fill="#FFFFFF" d="M2277.537,983.92v-45h-63.109v45h-7.641v-99.051h7.641v47.117h63.109v-47.117h7.643v99.051H2277.537z"/>
		<path fill="#FFFFFF" d="M2352.811,983.92v-12.594c-5.379,9.623-15.143,13.584-24.906,13.727c-18.68,0-31.555-11.463-31.555-30.848
			v-40.33h6.934v40.188c0,15.848,9.764,24.338,24.904,24.197c14.434-0.141,24.48-11.039,24.48-25.471v-38.914h6.934v70.045H2352.811
			z"/>
		<path fill="#FFFFFF" d="M2377.566,884.869v44.432c5.658-11.32,16.979-16.416,29.006-16.416c19.529,0,35.094,13.02,35.094,36.084
			c0,23.205-15.424,36.084-34.951,36.084c-11.887,0-23.348-5.945-29.148-16.557v15.424h-6.795v-99.051H2377.566z M2377.705,948.826
			c0,17.406,12.172,29.434,28.586,29.434c15.705,0,28.582-9.906,28.582-29.291c0-19.668-12.877-29.432-28.582-29.432
			C2390.158,919.537,2377.705,931.424,2377.705,948.826z"/>
	</g>
	<path fill="#FF5A00" d="M1350.104,943.471l-80.295-99.477l99.477,80.297c5.861,4.734,6.777,13.32,2.045,19.18
		c-4.73,5.863-13.318,6.781-19.18,2.049C1351.403,944.914,1350.69,944.189,1350.104,943.471z"/>
	<path fill="#FF5A00" d="M1281.833,888.926c-2.016,5.061-3.73,10.156-4.865,15.35c-1.229,5.158-1.988,10.373-2.271,15.564
		c-0.557,10.383,0.533,20.654,3.342,30.291c5.486,19.322,17.641,35.869,33.412,46.648c7.844,5.402,16.547,9.344,25.596,11.719
		c9.066,2.299,18.467,3.16,27.693,2.271c9.209-0.883,18.262-3.207,26.543-7.18c8.316-3.861,15.922-9.191,22.385-15.732
		c6.523-6.473,11.881-14.064,15.717-22.395c3.965-8.275,6.307-17.326,7.164-26.533c0.902-9.225,0.021-18.617-2.271-27.68
		c-1.16-4.533-2.77-8.959-4.734-13.24c-1.941-4.293-4.268-8.436-6.98-12.346c-10.777-15.764-27.307-27.916-46.619-33.408
		c-9.631-2.811-19.902-3.906-30.279-3.354c-5.193,0.281-10.408,1.033-15.564,2.264c-5.199,1.127-10.293,2.84-15.355,4.852
		c17.191-13.455,40.738-19.713,63.787-16.838c11.525,1.424,22.938,5.064,33.355,10.791c10.432,5.713,19.822,13.441,27.582,22.688
		c15.652,18.471,23.959,43.324,22.756,67.941c-0.551,12.316-3.467,24.551-8.436,35.916c-5.039,11.342-12.223,21.73-20.947,30.516
		c-8.799,8.709-19.172,15.919-30.525,20.927c-11.363,4.961-23.596,7.898-35.908,8.422c-24.617,1.215-49.449-7.121-67.918-22.755
		c-2.334-1.951-4.504-3.932-6.682-6.152c-0.543-0.555-1.145-1.154-1.561-1.623l-1.486-1.615c-1-1.111-1.979-2.248-2.928-3.402
		c-3.801-4.615-7.188-9.563-10.018-14.785c-5.725-10.41-9.365-21.816-10.789-33.342
		C1262.149,929.666,1268.396,906.127,1281.833,888.926z"/>
</g>
<g>
	<rect x="1211.337" y="502.486" fill="#FF5A00" width="1283.331" height="290.006"/>
	<g>
		<path fill="#FFFFFF" d="M1604.103,643.539c0.428,25.047-14.857,50.375-49.523,50.375c-12.17,0-26.744,0-38.914,0v-99.051
			c12.17,0,26.744,0,38.914,0C1588.54,594.863,1603.679,619.061,1604.103,643.539z M1534.202,675.943h20.377
			c22.498,0,31.412-16.414,30.988-32.545c-0.424-15.424-9.48-30.848-30.988-30.848h-20.377V675.943z"/>
		<path fill="#FFFFFF" d="M1666.763,624.152h16.555v69.762h-16.271l-0.85-10.189c-3.963,8.209-14.859,12.17-22.641,12.311
			c-20.658,0.143-35.941-12.592-35.941-37.072c0-24.055,15.99-36.65,36.365-36.508c9.34,0,18.254,4.387,22.217,11.32
			L1666.763,624.152z M1624.878,658.963c0,13.303,9.197,21.225,20.658,21.225c27.168,0,27.168-42.309,0-42.309
			C1634.075,637.879,1624.878,645.662,1624.878,658.963z"/>
		<path fill="#FFFFFF" d="M1736.374,642.689c-4.953-4.67-10.613-6.225-17.264-6.225c-8.207,0-12.736,2.547-12.736,6.934
			c0,4.527,4.104,7.074,13.02,7.639c13.16,0.85,29.857,3.822,29.857,22.359c0,12.309-10.047,22.922-30,22.922
			c-11.035,0-22.074-1.838-32.26-12.451l8.488-12.311c4.951,5.52,16.273,9.623,24.055,9.764c6.51,0.141,12.596-3.254,12.596-8.35
			c0-4.811-3.963-6.791-13.869-7.357c-13.158-0.99-28.865-5.801-28.865-21.648c0-16.133,16.697-21.793,29.432-21.793
			c10.895,0,19.104,2.123,27.17,9.197L1736.374,642.689z"/>
		<path fill="#FFFFFF" d="M1770.47,594.863v38.77c6.227-8.064,13.867-10.471,21.791-10.471c19.811,0,28.584,13.443,28.584,33.961
			v36.791h-17.262v-36.648c0-12.736-6.652-18.113-15.85-18.113c-10.188,0-17.264,8.633-17.264,19.104v35.658h-17.264v-99.051
			H1770.47z"/>
		<path fill="#FFFFFF" d="M1845.601,595.004v38.629c4.104-7.215,15.564-11.178,22.924-11.178c20.377,0,35.516,12.453,35.516,36.508
			c0,22.924-15.424,36.508-35.941,36.508c-8.488,0-17.121-2.832-22.498-11.18l-1.133,9.623h-16.131v-98.91H1845.601z
			 M1846.733,658.963c0,12.594,9.338,20.518,20.234,20.518c11.037,0,19.811-8.348,19.811-20.518
			c0-12.594-8.773-20.377-19.811-20.377C1856.071,638.586,1846.733,646.793,1846.733,658.963z"/>
		<path fill="#FFFFFF" d="M1980.995,659.104c0,20.096-13.727,36.367-36.367,36.367c-22.639,0-36.225-16.271-36.225-36.367
			c0-19.951,13.867-36.365,36.084-36.365S1980.995,639.152,1980.995,659.104z M1925.667,659.104c0,10.613,6.369,20.52,18.961,20.52
			c12.596,0,18.963-9.906,18.963-20.52c0-10.471-7.357-20.658-18.963-20.658C1932.177,638.445,1925.667,648.633,1925.667,659.104z"
			/>
		<path fill="#FFFFFF" d="M2044.507,624.152h16.554v69.762h-16.272l-0.848-10.189c-3.963,8.209-14.859,12.17-22.641,12.311
			c-20.66,0.143-35.941-12.592-35.941-37.072c0-24.055,15.99-36.65,36.365-36.508c9.34,0,18.254,4.387,22.217,11.32
			L2044.507,624.152z M2002.62,658.963c0,13.303,9.199,21.225,20.66,21.225c27.167,0,27.167-42.309,0-42.309
			C2011.819,637.879,2002.62,645.662,2002.62,658.963z"/>
		<path fill="#FFFFFF" d="M2084.541,624.152l1.275,8.066c5.377-8.631,12.592-9.906,19.668-9.906c7.217,0,14.15,2.832,17.971,6.652
			l-7.781,15c-3.537-2.973-6.793-4.529-12.453-4.529c-9.057,0-17.404,4.811-17.404,17.688v36.791h-17.264v-69.762H2084.541z"/>
		<path fill="#FFFFFF" d="M2195.33,595.004v98.91h-16.129l-1.133-9.623c-5.377,8.348-14.01,11.18-22.5,11.18
			c-20.516,0-35.941-13.584-35.941-36.508c0-24.055,15.141-36.508,35.518-36.508c7.357,0,18.818,3.963,22.924,11.178v-38.629
			H2195.33z M2136.891,658.963c0,12.17,8.773,20.518,19.811,20.518c10.895,0,20.234-7.924,20.234-20.518
			c0-12.17-9.34-20.377-20.234-20.377C2145.664,638.586,2136.891,646.369,2136.891,658.963z"/>
		<path fill="#FFFFFF" d="M2277.537,693.914v-45h-63.109v45h-7.641v-99.051h7.641v47.117h63.109v-47.117h7.643v99.051H2277.537z"/>
		<path fill="#FFFFFF" d="M2352.811,693.914V681.32c-5.379,9.623-15.143,13.584-24.906,13.727c-18.68,0-31.555-11.463-31.555-30.848
			v-40.33h6.934v40.188c0,15.848,9.764,24.338,24.904,24.197c14.434-0.141,24.48-11.039,24.48-25.471v-38.914h6.934v70.045H2352.811
			z"/>
		<path fill="#FFFFFF" d="M2377.566,594.863v44.432c5.658-11.32,16.979-16.416,29.006-16.416c19.529,0,35.094,13.02,35.094,36.084
			c0,23.205-15.424,36.084-34.951,36.084c-11.887,0-23.348-5.945-29.148-16.557v15.424h-6.795v-99.051H2377.566z M2377.705,658.82
			c0,17.406,12.172,29.434,28.586,29.434c15.705,0,28.582-9.906,28.582-29.291c0-19.668-12.877-29.432-28.582-29.432
			C2390.158,629.531,2377.705,641.418,2377.705,658.82z"/>
	</g>
	<path fill="#FFFFFF" d="M1350.104,653.465l-80.295-99.477l99.477,80.297c5.861,4.734,6.777,13.32,2.045,19.18
		c-4.73,5.863-13.318,6.781-19.18,2.049C1351.403,654.908,1350.69,654.184,1350.104,653.465z"/>
	<path fill="#FFFFFF" d="M1281.833,598.92c-2.016,5.061-3.73,10.156-4.865,15.35c-1.229,5.158-1.988,10.373-2.271,15.564
		c-0.557,10.383,0.533,20.654,3.342,30.291c5.486,19.322,17.641,35.869,33.412,46.648c7.844,5.402,16.547,9.344,25.596,11.719
		c9.066,2.299,18.467,3.16,27.693,2.271c9.209-0.883,18.262-3.207,26.543-7.18c8.316-3.861,15.922-9.191,22.385-15.732
		c6.523-6.473,11.881-14.064,15.717-22.395c3.965-8.275,6.307-17.326,7.164-26.533c0.902-9.225,0.021-18.617-2.271-27.68
		c-1.16-4.533-2.77-8.959-4.734-13.24c-1.941-4.293-4.268-8.436-6.98-12.346c-10.777-15.764-27.307-27.916-46.619-33.408
		c-9.631-2.811-19.902-3.906-30.279-3.354c-5.193,0.281-10.408,1.033-15.564,2.264c-5.199,1.127-10.293,2.84-15.355,4.852
		c17.191-13.455,40.738-19.713,63.787-16.838c11.525,1.424,22.938,5.064,33.355,10.791c10.432,5.713,19.822,13.441,27.582,22.688
		c15.652,18.471,23.959,43.324,22.756,67.941c-0.551,12.316-3.467,24.551-8.436,35.916c-5.039,11.342-12.223,21.73-20.947,30.516
		c-8.799,8.709-19.172,15.92-30.525,20.928c-11.363,4.961-23.596,7.898-35.908,8.422c-24.617,1.215-49.449-7.121-67.918-22.756
		c-2.334-1.951-4.504-3.932-6.682-6.152c-0.543-0.555-1.145-1.154-1.561-1.623l-1.486-1.615c-1-1.111-1.979-2.248-2.928-3.402
		c-3.801-4.615-7.188-9.563-10.018-14.785c-5.725-10.41-9.365-21.816-10.789-33.342
		C1262.149,639.66,1268.396,616.121,1281.833,598.92z"/>
</g>
<g>
	<rect x="1211.337" y="1952.51" fill="#FF5A00" width="1283.331" height="290.005"/>
	<g>
		<path d="M1604.103,2093.563c0.428,25.047-14.857,50.375-49.523,50.375c-12.17,0-26.744,0-38.914,0v-99.051
			c12.17,0,26.744,0,38.914,0C1588.54,2044.887,1603.679,2069.084,1604.103,2093.563z M1534.202,2125.967h20.377
			c22.498,0,31.412-16.414,30.988-32.545c-0.424-15.424-9.48-30.848-30.988-30.848h-20.377V2125.967z"/>
		<path d="M1666.763,2074.176h16.555v69.762h-16.271l-0.85-10.189c-3.963,8.209-14.859,12.17-22.641,12.311
			c-20.658,0.143-35.941-12.592-35.941-37.072c0-24.055,15.99-36.65,36.365-36.508c9.34,0,18.254,4.387,22.217,11.32
			L1666.763,2074.176z M1624.878,2108.986c0,13.303,9.197,21.225,20.658,21.225c27.168,0,27.168-42.309,0-42.309
			C1634.075,2087.902,1624.878,2095.686,1624.878,2108.986z"/>
		<path d="M1736.374,2092.713c-4.953-4.67-10.613-6.225-17.264-6.225c-8.207,0-12.736,2.547-12.736,6.934
			c0,4.527,4.104,7.074,13.02,7.639c13.16,0.85,29.857,3.822,29.857,22.359c0,12.309-10.047,22.922-30,22.922
			c-11.035,0-22.074-1.838-32.26-12.451l8.488-12.311c4.951,5.52,16.273,9.623,24.055,9.764c6.51,0.141,12.596-3.254,12.596-8.35
			c0-4.811-3.963-6.791-13.869-7.357c-13.158-0.99-28.865-5.801-28.865-21.648c0-16.133,16.697-21.793,29.432-21.793
			c10.895,0,19.104,2.123,27.17,9.197L1736.374,2092.713z"/>
		<path d="M1770.47,2044.887v38.77c6.227-8.064,13.867-10.471,21.791-10.471c19.811,0,28.584,13.443,28.584,33.961v36.791h-17.262
			v-36.648c0-12.736-6.652-18.113-15.85-18.113c-10.188,0-17.264,8.633-17.264,19.104v35.658h-17.264v-99.051H1770.47z"/>
		<path d="M1845.601,2045.027v38.629c4.104-7.215,15.564-11.178,22.924-11.178c20.377,0,35.516,12.453,35.516,36.508
			c0,22.924-15.424,36.508-35.941,36.508c-8.488,0-17.121-2.832-22.498-11.18l-1.133,9.623h-16.131v-98.91H1845.601z
			 M1846.733,2108.986c0,12.594,9.338,20.518,20.234,20.518c11.037,0,19.811-8.348,19.811-20.518
			c0-12.594-8.773-20.377-19.811-20.377C1856.071,2088.609,1846.733,2096.816,1846.733,2108.986z"/>
		<path d="M1980.995,2109.127c0,20.096-13.727,36.367-36.367,36.367c-22.639,0-36.225-16.271-36.225-36.367
			c0-19.951,13.867-36.365,36.084-36.365S1980.995,2089.176,1980.995,2109.127z M1925.667,2109.127
			c0,10.613,6.369,20.52,18.961,20.52c12.596,0,18.963-9.906,18.963-20.52c0-10.471-7.357-20.658-18.963-20.658
			C1932.177,2088.469,1925.667,2098.656,1925.667,2109.127z"/>
		<path d="M2044.507,2074.176h16.554v69.762h-16.272l-0.848-10.189c-3.963,8.209-14.859,12.17-22.641,12.311
			c-20.66,0.143-35.941-12.592-35.941-37.072c0-24.055,15.99-36.65,36.365-36.508c9.34,0,18.254,4.387,22.217,11.32
			L2044.507,2074.176z M2002.62,2108.986c0,13.303,9.199,21.225,20.66,21.225c27.167,0,27.167-42.309,0-42.309
			C2011.819,2087.902,2002.62,2095.686,2002.62,2108.986z"/>
		<path d="M2084.541,2074.176l1.275,8.066c5.377-8.631,12.592-9.906,19.668-9.906c7.217,0,14.15,2.832,17.971,6.652l-7.781,15
			c-3.537-2.973-6.793-4.529-12.453-4.529c-9.057,0-17.404,4.811-17.404,17.688v36.791h-17.264v-69.762H2084.541z"/>
		<path d="M2195.33,2045.027v98.91h-16.129l-1.133-9.623c-5.377,8.348-14.01,11.18-22.5,11.18
			c-20.516,0-35.941-13.584-35.941-36.508c0-24.055,15.141-36.508,35.518-36.508c7.357,0,18.818,3.963,22.924,11.178v-38.629
			H2195.33z M2136.891,2108.986c0,12.17,8.773,20.518,19.811,20.518c10.895,0,20.234-7.924,20.234-20.518
			c0-12.17-9.34-20.377-20.234-20.377C2145.664,2088.609,2136.891,2096.393,2136.891,2108.986z"/>
		<path d="M2277.537,2143.938v-45h-63.109v45h-7.641v-99.051h7.641v47.117h63.109v-47.117h7.643v99.051H2277.537z"/>
		<path d="M2352.811,2143.938v-12.594c-5.379,9.623-15.143,13.584-24.906,13.727c-18.68,0-31.555-11.463-31.555-30.848v-40.33h6.934
			v40.188c0,15.848,9.764,24.338,24.904,24.197c14.434-0.141,24.48-11.039,24.48-25.471v-38.914h6.934v70.045H2352.811z"/>
		<path d="M2377.566,2044.887v44.432c5.658-11.32,16.979-16.416,29.006-16.416c19.529,0,35.094,13.02,35.094,36.084
			c0,23.205-15.424,36.084-34.951,36.084c-11.887,0-23.348-5.945-29.148-16.557v15.424h-6.795v-99.051H2377.566z M2377.705,2108.844
			c0,17.406,12.172,29.434,28.586,29.434c15.705,0,28.582-9.906,28.582-29.291c0-19.668-12.877-29.432-28.582-29.432
			C2390.158,2079.555,2377.705,2091.441,2377.705,2108.844z"/>
	</g>
	<path d="M1350.104,2103.488l-80.295-99.477l99.477,80.297c5.861,4.734,6.777,13.32,2.045,19.18
		c-4.73,5.863-13.318,6.781-19.18,2.049C1351.403,2104.932,1350.69,2104.207,1350.104,2103.488z"/>
	<path d="M1281.833,2048.943c-2.016,5.061-3.73,10.156-4.865,15.35c-1.229,5.158-1.988,10.373-2.271,15.564
		c-0.557,10.383,0.533,20.654,3.342,30.291c5.486,19.322,17.641,35.869,33.412,46.648c7.844,5.402,16.547,9.344,25.596,11.719
		c9.066,2.299,18.467,3.16,27.693,2.271c9.209-0.883,18.262-3.207,26.543-7.18c8.316-3.861,15.922-9.191,22.385-15.732
		c6.523-6.473,11.881-14.064,15.717-22.395c3.965-8.275,6.307-17.326,7.164-26.533c0.902-9.225,0.021-18.617-2.271-27.68
		c-1.16-4.533-2.77-8.959-4.734-13.24c-1.941-4.293-4.268-8.436-6.98-12.346c-10.777-15.764-27.307-27.916-46.619-33.408
		c-9.631-2.811-19.902-3.906-30.279-3.354c-5.193,0.281-10.408,1.033-15.564,2.264c-5.199,1.127-10.293,2.84-15.355,4.852
		c17.191-13.455,40.738-19.713,63.787-16.838c11.525,1.424,22.938,5.064,33.355,10.791c10.432,5.713,19.822,13.441,27.582,22.688
		c15.652,18.471,23.959,43.324,22.756,67.941c-0.551,12.316-3.467,24.551-8.436,35.916c-5.039,11.342-12.223,21.73-20.947,30.516
		c-8.799,8.709-19.172,15.919-30.525,20.927c-11.363,4.961-23.596,7.898-35.908,8.422c-24.617,1.215-49.449-7.121-67.918-22.755
		c-2.334-1.951-4.504-3.932-6.682-6.152c-0.543-0.555-1.145-1.154-1.561-1.623l-1.486-1.615c-1-1.111-1.979-2.248-2.928-3.402
		c-3.801-4.615-7.188-9.563-10.018-14.785c-5.725-10.41-9.365-21.816-10.789-33.342
		C1262.149,2089.684,1268.396,2066.145,1281.833,2048.943z"/>
</g>
<g>
	<rect x="1211.337" y="1372.503" width="1283.331" height="290.004"/>
	<g>
		<path fill="#FFFFFF" d="M1604.103,1513.556c0.428,25.047-14.857,50.375-49.523,50.375c-12.17,0-26.744,0-38.914,0v-99.051
			c12.17,0,26.744,0,38.914,0C1588.54,1464.88,1603.679,1489.077,1604.103,1513.556z M1534.202,1545.96h20.377
			c22.498,0,31.412-16.414,30.988-32.545c-0.424-15.424-9.48-30.848-30.988-30.848h-20.377V1545.96z"/>
		<path fill="#FFFFFF" d="M1666.763,1494.169h16.555v69.762h-16.271l-0.85-10.189c-3.963,8.209-14.859,12.17-22.641,12.311
			c-20.658,0.143-35.941-12.592-35.941-37.072c0-24.055,15.99-36.65,36.365-36.508c9.34,0,18.254,4.387,22.217,11.32
			L1666.763,1494.169z M1624.878,1528.979c0,13.303,9.197,21.225,20.658,21.225c27.168,0,27.168-42.309,0-42.309
			C1634.075,1507.896,1624.878,1515.679,1624.878,1528.979z"/>
		<path fill="#FFFFFF" d="M1736.374,1512.706c-4.953-4.67-10.613-6.225-17.264-6.225c-8.207,0-12.736,2.547-12.736,6.934
			c0,4.527,4.104,7.074,13.02,7.639c13.16,0.85,29.857,3.822,29.857,22.359c0,12.309-10.047,22.922-30,22.922
			c-11.035,0-22.074-1.838-32.26-12.451l8.488-12.311c4.951,5.52,16.273,9.623,24.055,9.764c6.51,0.141,12.596-3.254,12.596-8.35
			c0-4.811-3.963-6.791-13.869-7.357c-13.158-0.99-28.865-5.801-28.865-21.648c0-16.133,16.697-21.793,29.432-21.793
			c10.895,0,19.104,2.123,27.17,9.197L1736.374,1512.706z"/>
		<path fill="#FFFFFF" d="M1770.47,1464.88v38.77c6.227-8.064,13.867-10.471,21.791-10.471c19.811,0,28.584,13.443,28.584,33.961
			v36.791h-17.262v-36.648c0-12.736-6.652-18.113-15.85-18.113c-10.188,0-17.264,8.633-17.264,19.104v35.658h-17.264v-99.051
			H1770.47z"/>
		<path fill="#FFFFFF" d="M1845.601,1465.021v38.629c4.104-7.215,15.564-11.178,22.924-11.178c20.377,0,35.516,12.453,35.516,36.508
			c0,22.924-15.424,36.508-35.941,36.508c-8.488,0-17.121-2.832-22.498-11.18l-1.133,9.623h-16.131v-98.91H1845.601z
			 M1846.733,1528.979c0,12.594,9.338,20.518,20.234,20.518c11.037,0,19.811-8.348,19.811-20.518
			c0-12.594-8.773-20.377-19.811-20.377C1856.071,1508.603,1846.733,1516.81,1846.733,1528.979z"/>
		<path fill="#FFFFFF" d="M1980.995,1529.12c0,20.096-13.727,36.367-36.367,36.367c-22.639,0-36.225-16.271-36.225-36.367
			c0-19.951,13.867-36.365,36.084-36.365S1980.995,1509.169,1980.995,1529.12z M1925.667,1529.12c0,10.613,6.369,20.52,18.961,20.52
			c12.596,0,18.963-9.906,18.963-20.52c0-10.471-7.357-20.658-18.963-20.658C1932.177,1508.462,1925.667,1518.649,1925.667,1529.12z
			"/>
		<path fill="#FFFFFF" d="M2044.507,1494.169h16.554v69.762h-16.272l-0.848-10.189c-3.963,8.209-14.859,12.17-22.641,12.311
			c-20.66,0.143-35.941-12.592-35.941-37.072c0-24.055,15.99-36.65,36.365-36.508c9.34,0,18.254,4.387,22.217,11.32
			L2044.507,1494.169z M2002.62,1528.979c0,13.303,9.199,21.225,20.66,21.225c27.167,0,27.167-42.309,0-42.309
			C2011.819,1507.896,2002.62,1515.679,2002.62,1528.979z"/>
		<path fill="#FFFFFF" d="M2084.541,1494.169l1.275,8.066c5.377-8.631,12.592-9.906,19.668-9.906c7.217,0,14.15,2.832,17.971,6.652
			l-7.781,15c-3.537-2.973-6.793-4.529-12.453-4.529c-9.057,0-17.404,4.811-17.404,17.688v36.791h-17.264v-69.762H2084.541z"/>
		<path fill="#FFFFFF" d="M2195.33,1465.021v98.91h-16.129l-1.133-9.623c-5.377,8.348-14.01,11.18-22.5,11.18
			c-20.516,0-35.941-13.584-35.941-36.508c0-24.055,15.141-36.508,35.518-36.508c7.357,0,18.818,3.963,22.924,11.178v-38.629
			H2195.33z M2136.891,1528.979c0,12.17,8.773,20.518,19.811,20.518c10.895,0,20.234-7.924,20.234-20.518
			c0-12.17-9.34-20.377-20.234-20.377C2145.664,1508.603,2136.891,1516.386,2136.891,1528.979z"/>
		<path fill="#FFFFFF" d="M2277.537,1563.931v-45h-63.109v45h-7.641v-99.051h7.641v47.117h63.109v-47.117h7.643v99.051H2277.537z"/>
		<path fill="#FFFFFF" d="M2352.811,1563.931v-12.594c-5.379,9.623-15.143,13.584-24.906,13.727
			c-18.68,0-31.555-11.463-31.555-30.848v-40.33h6.934v40.188c0,15.848,9.764,24.338,24.904,24.197
			c14.434-0.141,24.48-11.039,24.48-25.471v-38.914h6.934v70.045H2352.811z"/>
		<path fill="#FFFFFF" d="M2377.566,1464.88v44.432c5.658-11.32,16.979-16.416,29.006-16.416c19.529,0,35.094,13.02,35.094,36.084
			c0,23.205-15.424,36.084-34.951,36.084c-11.887,0-23.348-5.945-29.148-16.557v15.424h-6.795v-99.051H2377.566z M2377.705,1528.837
			c0,17.406,12.172,29.434,28.586,29.434c15.705,0,28.582-9.906,28.582-29.291c0-19.668-12.877-29.432-28.582-29.432
			C2390.158,1499.548,2377.705,1511.435,2377.705,1528.837z"/>
	</g>
	<path fill="#FFFFFF" d="M1350.104,1523.481l-80.295-99.477l99.477,80.297c5.861,4.734,6.777,13.32,2.045,19.18
		c-4.73,5.863-13.318,6.781-19.18,2.049C1351.403,1524.925,1350.69,1524.2,1350.104,1523.481z"/>
	<path fill="#FFFFFF" d="M1281.833,1468.937c-2.016,5.061-3.73,10.156-4.865,15.35c-1.229,5.158-1.988,10.373-2.271,15.564
		c-0.557,10.383,0.533,20.654,3.342,30.291c5.486,19.322,17.641,35.869,33.412,46.648c7.844,5.402,16.547,9.344,25.596,11.719
		c9.066,2.299,18.467,3.16,27.693,2.271c9.209-0.883,18.262-3.207,26.543-7.18c8.316-3.861,15.922-9.191,22.385-15.732
		c6.523-6.473,11.881-14.064,15.717-22.395c3.965-8.275,6.307-17.326,7.164-26.533c0.902-9.225,0.021-18.617-2.271-27.68
		c-1.16-4.533-2.77-8.959-4.734-13.24c-1.941-4.293-4.268-8.436-6.98-12.346c-10.777-15.764-27.307-27.916-46.619-33.408
		c-9.631-2.811-19.902-3.906-30.279-3.354c-5.193,0.281-10.408,1.033-15.564,2.264c-5.199,1.127-10.293,2.84-15.355,4.852
		c17.191-13.455,40.738-19.713,63.787-16.838c11.525,1.424,22.938,5.064,33.355,10.791c10.432,5.713,19.822,13.441,27.582,22.688
		c15.652,18.471,23.959,43.324,22.756,67.941c-0.551,12.316-3.467,24.551-8.436,35.916c-5.039,11.342-12.223,21.73-20.947,30.516
		c-8.799,8.709-19.172,15.918-30.525,20.926c-11.363,4.961-23.596,7.898-35.908,8.422c-24.617,1.215-49.449-7.121-67.918-22.754
		c-2.334-1.951-4.504-3.932-6.682-6.152c-0.543-0.555-1.145-1.154-1.561-1.623l-1.486-1.615c-1-1.111-1.979-2.248-2.928-3.402
		c-3.801-4.615-7.188-9.563-10.018-14.785c-5.725-10.41-9.365-21.816-10.789-33.342
		C1262.149,1509.677,1268.396,1486.138,1281.833,1468.937z"/>
</g>
<g>
	<rect x="1211.337" y="1662.507" fill="none" width="1283.331" height="290.003"/>
	<g>
		<path d="M1604.103,1803.559c0.428,25.047-14.857,50.375-49.523,50.375c-12.17,0-26.744,0-38.914,0v-99.051
			c12.17,0,26.744,0,38.914,0C1588.54,1754.883,1603.679,1779.08,1604.103,1803.559z M1534.202,1835.963h20.377
			c22.498,0,31.412-16.414,30.988-32.545c-0.424-15.424-9.48-30.848-30.988-30.848h-20.377V1835.963z"/>
		<path d="M1666.763,1784.172h16.555v69.762h-16.271l-0.85-10.189c-3.963,8.209-14.859,12.17-22.641,12.311
			c-20.658,0.143-35.941-12.592-35.941-37.072c0-24.055,15.99-36.65,36.365-36.508c9.34,0,18.254,4.387,22.217,11.32
			L1666.763,1784.172z M1624.878,1818.982c0,13.303,9.197,21.225,20.658,21.225c27.168,0,27.168-42.309,0-42.309
			C1634.075,1797.898,1624.878,1805.682,1624.878,1818.982z"/>
		<path d="M1736.374,1802.709c-4.953-4.67-10.613-6.225-17.264-6.225c-8.207,0-12.736,2.547-12.736,6.934
			c0,4.527,4.104,7.074,13.02,7.639c13.16,0.85,29.857,3.822,29.857,22.359c0,12.309-10.047,22.922-30,22.922
			c-11.035,0-22.074-1.838-32.26-12.451l8.488-12.311c4.951,5.52,16.273,9.623,24.055,9.764c6.51,0.141,12.596-3.254,12.596-8.35
			c0-4.811-3.963-6.791-13.869-7.357c-13.158-0.99-28.865-5.801-28.865-21.648c0-16.133,16.697-21.793,29.432-21.793
			c10.895,0,19.104,2.123,27.17,9.197L1736.374,1802.709z"/>
		<path d="M1770.47,1754.883v38.77c6.227-8.064,13.867-10.471,21.791-10.471c19.811,0,28.584,13.443,28.584,33.961v36.791h-17.262
			v-36.648c0-12.736-6.652-18.113-15.85-18.113c-10.188,0-17.264,8.633-17.264,19.104v35.658h-17.264v-99.051H1770.47z"/>
		<path d="M1845.601,1755.023v38.629c4.104-7.215,15.564-11.178,22.924-11.178c20.377,0,35.516,12.453,35.516,36.508
			c0,22.924-15.424,36.508-35.941,36.508c-8.488,0-17.121-2.832-22.498-11.18l-1.133,9.623h-16.131v-98.91H1845.601z
			 M1846.733,1818.982c0,12.594,9.338,20.518,20.234,20.518c11.037,0,19.811-8.348,19.811-20.518
			c0-12.594-8.773-20.377-19.811-20.377C1856.071,1798.605,1846.733,1806.813,1846.733,1818.982z"/>
		<path d="M1980.995,1819.123c0,20.096-13.727,36.367-36.367,36.367c-22.639,0-36.225-16.271-36.225-36.367
			c0-19.951,13.867-36.365,36.084-36.365S1980.995,1799.172,1980.995,1819.123z M1925.667,1819.123
			c0,10.613,6.369,20.52,18.961,20.52c12.596,0,18.963-9.906,18.963-20.52c0-10.471-7.357-20.658-18.963-20.658
			C1932.177,1798.465,1925.667,1808.652,1925.667,1819.123z"/>
		<path d="M2044.507,1784.172h16.554v69.762h-16.272l-0.848-10.189c-3.963,8.209-14.859,12.17-22.641,12.311
			c-20.66,0.143-35.941-12.592-35.941-37.072c0-24.055,15.99-36.65,36.365-36.508c9.34,0,18.254,4.387,22.217,11.32
			L2044.507,1784.172z M2002.62,1818.982c0,13.303,9.199,21.225,20.66,21.225c27.167,0,27.167-42.309,0-42.309
			C2011.819,1797.898,2002.62,1805.682,2002.62,1818.982z"/>
		<path d="M2084.541,1784.172l1.275,8.066c5.377-8.631,12.592-9.906,19.668-9.906c7.217,0,14.15,2.832,17.971,6.652l-7.781,15
			c-3.537-2.973-6.793-4.529-12.453-4.529c-9.057,0-17.404,4.811-17.404,17.688v36.791h-17.264v-69.762H2084.541z"/>
		<path d="M2195.33,1755.023v98.91h-16.129l-1.133-9.623c-5.377,8.348-14.01,11.18-22.5,11.18
			c-20.516,0-35.941-13.584-35.941-36.508c0-24.055,15.141-36.508,35.518-36.508c7.357,0,18.818,3.963,22.924,11.178v-38.629
			H2195.33z M2136.891,1818.982c0,12.17,8.773,20.518,19.811,20.518c10.895,0,20.234-7.924,20.234-20.518
			c0-12.17-9.34-20.377-20.234-20.377C2145.664,1798.605,2136.891,1806.389,2136.891,1818.982z"/>
		<path d="M2277.537,1853.934v-45h-63.109v45h-7.641v-99.051h7.641V1802h63.109v-47.117h7.643v99.051H2277.537z"/>
		<path d="M2352.811,1853.934v-12.594c-5.379,9.623-15.143,13.584-24.906,13.727c-18.68,0-31.555-11.463-31.555-30.848v-40.33h6.934
			v40.188c0,15.848,9.764,24.338,24.904,24.197c14.434-0.141,24.48-11.039,24.48-25.471v-38.914h6.934v70.045H2352.811z"/>
		<path d="M2377.566,1754.883v44.432c5.658-11.32,16.979-16.416,29.006-16.416c19.529,0,35.094,13.02,35.094,36.084
			c0,23.205-15.424,36.084-34.951,36.084c-11.887,0-23.348-5.945-29.148-16.557v15.424h-6.795v-99.051H2377.566z M2377.705,1818.84
			c0,17.406,12.172,29.434,28.586,29.434c15.705,0,28.582-9.906,28.582-29.291c0-19.668-12.877-29.432-28.582-29.432
			C2390.158,1789.551,2377.705,1801.438,2377.705,1818.84z"/>
	</g>
	<path d="M1350.104,1813.484l-80.295-99.477l99.477,80.297c5.861,4.734,6.777,13.32,2.045,19.18
		c-4.73,5.863-13.318,6.781-19.18,2.049C1351.403,1814.928,1350.69,1814.203,1350.104,1813.484z"/>
	<path d="M1281.833,1758.939c-2.016,5.061-3.73,10.156-4.865,15.35c-1.229,5.158-1.988,10.373-2.271,15.564
		c-0.557,10.383,0.533,20.654,3.342,30.291c5.486,19.322,17.641,35.869,33.412,46.648c7.844,5.402,16.547,9.344,25.596,11.719
		c9.066,2.299,18.467,3.16,27.693,2.271c9.209-0.883,18.262-3.207,26.543-7.18c8.316-3.861,15.922-9.191,22.385-15.732
		c6.523-6.473,11.881-14.064,15.717-22.395c3.965-8.275,6.307-17.326,7.164-26.533c0.902-9.225,0.021-18.617-2.271-27.68
		c-1.16-4.533-2.77-8.959-4.734-13.24c-1.941-4.293-4.268-8.436-6.98-12.346c-10.777-15.764-27.307-27.916-46.619-33.408
		c-9.631-2.811-19.902-3.906-30.279-3.354c-5.193,0.281-10.408,1.033-15.564,2.264c-5.199,1.127-10.293,2.84-15.355,4.852
		c17.191-13.455,40.738-19.713,63.787-16.838c11.525,1.424,22.938,5.064,33.355,10.791c10.432,5.713,19.822,13.441,27.582,22.688
		c15.652,18.471,23.959,43.324,22.756,67.941c-0.551,12.316-3.467,24.551-8.436,35.916c-5.039,11.342-12.223,21.73-20.947,30.516
		c-8.799,8.709-19.172,15.918-30.525,20.926c-11.363,4.961-23.596,7.898-35.908,8.422c-24.617,1.215-49.449-7.121-67.918-22.754
		c-2.334-1.951-4.504-3.932-6.682-6.152c-0.543-0.555-1.145-1.154-1.561-1.623l-1.486-1.615c-1-1.111-1.979-2.248-2.928-3.402
		c-3.801-4.615-7.188-9.563-10.018-14.785c-5.725-10.41-9.365-21.816-10.789-33.342
		C1262.149,1799.68,1268.396,1776.141,1281.833,1758.939z"/>
</g>
<g>
	<rect x="603.328" y="1082.496" fill="none" width="304.003" height="290.003"/>
	<path fill="#FF5A00" d="M742.095,1233.476l-80.295-99.478l99.477,80.298c5.861,4.734,6.777,13.32,2.045,19.18
		c-4.73,5.863-13.318,6.781-19.18,2.047C743.394,1234.917,742.681,1234.194,742.095,1233.476z"/>
	<path fill="#FF5A00" d="M673.824,1178.929c-2.016,5.063-3.73,10.156-4.865,15.352c-1.229,5.156-1.988,10.371-2.271,15.563
		c-0.557,10.383,0.533,20.656,3.342,30.293c5.486,19.32,17.641,35.867,33.412,46.648c7.844,5.402,16.547,9.344,25.596,11.719
		c9.066,2.297,18.467,3.16,27.693,2.27c9.209-0.883,18.262-3.207,26.543-7.18c8.316-3.859,15.922-9.191,22.385-15.73
		c6.523-6.473,11.881-14.066,15.717-22.395c3.964-8.277,6.306-17.328,7.164-26.535c0.902-9.223,0.021-18.617-2.271-27.68
		c-1.16-4.531-2.77-8.957-4.734-13.238c-1.941-4.293-4.268-8.438-6.98-12.348c-10.777-15.762-27.307-27.914-46.619-33.406
		c-9.631-2.813-19.902-3.906-30.279-3.355c-5.193,0.281-10.408,1.035-15.564,2.266c-5.199,1.125-10.293,2.84-15.355,4.852
		c17.191-13.456,40.738-19.714,63.787-16.839c11.525,1.424,22.938,5.064,33.355,10.792c10.432,5.711,19.822,13.441,27.582,22.688
		c15.652,18.469,23.959,43.324,22.756,67.941c-0.551,12.316-3.467,24.551-8.436,35.914c-5.039,11.344-12.223,21.73-20.947,30.516
		c-8.798,8.711-19.171,15.922-30.525,20.93c-11.363,4.961-23.596,7.898-35.908,8.422c-24.617,1.215-49.449-7.121-67.918-22.758
		c-2.334-1.949-4.504-3.93-6.682-6.152c-0.543-0.555-1.145-1.152-1.561-1.621l-1.486-1.617c-1-1.109-1.979-2.246-2.928-3.402
		c-3.801-4.613-7.188-9.563-10.018-14.785c-5.725-10.41-9.365-21.816-10.789-33.34
		C654.14,1219.671,660.386,1196.132,673.824,1178.929z"/>
</g>
<g>
	<rect x="299.324" y="1372.499" fill="none" width="304.004" height="290.002"/>
	<path d="M438.091,1523.478l-80.295-99.475l99.477,80.296c5.861,4.734,6.777,13.32,2.045,19.179
		c-4.73,5.863-13.318,6.781-19.18,2.047C439.39,1524.919,438.677,1524.196,438.091,1523.478z"/>
	<path d="M369.82,1468.932c-2.016,5.063-3.73,10.156-4.865,15.352c-1.229,5.156-1.988,10.371-2.271,15.563
		c-0.557,10.383,0.533,20.655,3.342,30.292c5.486,19.32,17.641,35.867,33.412,46.648c7.844,5.402,16.547,9.344,25.596,11.719
		c9.066,2.297,18.467,3.16,27.693,2.27c9.209-0.883,18.262-3.207,26.543-7.18c8.316-3.859,15.922-9.191,22.385-15.73
		c6.523-6.473,11.881-14.066,15.717-22.395c3.965-8.277,6.307-17.328,7.164-26.534c0.902-9.223,0.021-18.617-2.271-27.68
		c-1.16-4.531-2.77-8.957-4.734-13.238c-1.941-4.293-4.268-8.438-6.98-12.348c-10.777-15.762-27.307-27.914-46.619-33.406
		c-9.631-2.813-19.902-3.906-30.279-3.355c-5.193,0.281-10.408,1.035-15.564,2.266c-5.199,1.125-10.293,2.84-15.355,4.852
		c17.191-13.456,40.738-19.714,63.787-16.839c11.525,1.426,22.938,5.066,33.355,10.792c10.432,5.711,19.822,13.441,27.582,22.688
		c15.652,18.469,23.959,43.324,22.756,67.94c-0.551,12.316-3.467,24.551-8.436,35.914c-5.039,11.344-12.223,21.73-20.947,30.516
		c-8.799,8.711-19.172,15.922-30.525,20.93c-11.363,4.961-23.596,7.898-35.908,8.422c-24.617,1.215-49.449-7.121-67.918-22.758
		c-2.334-1.949-4.504-3.93-6.682-6.152c-0.543-0.555-1.145-1.152-1.561-1.621l-1.486-1.617c-1-1.109-1.979-2.246-2.928-3.402
		c-3.801-4.613-7.188-9.563-10.018-14.785c-5.725-10.41-9.365-21.816-10.789-33.34
		C350.136,1509.674,356.382,1486.135,369.82,1468.932z"/>
</g>
<g>
	<rect x="299.324" y="1082.497" fill="#4D4D4D" width="304.004" height="290.002"/>
	<path fill="#FF5A00" d="M438.091,1233.476l-80.295-99.477l99.477,80.297c5.861,4.734,6.777,13.32,2.045,19.18
		c-4.73,5.863-13.318,6.781-19.18,2.049C439.39,1234.919,438.677,1234.194,438.091,1233.476z"/>
	<path fill="#FF5A00" d="M369.82,1178.931c-2.016,5.061-3.73,10.156-4.865,15.35c-1.229,5.158-1.988,10.373-2.271,15.564
		c-0.557,10.383,0.533,20.654,3.342,30.291c5.486,19.322,17.641,35.869,33.412,46.648c7.844,5.402,16.547,9.344,25.596,11.719
		c9.066,2.299,18.467,3.16,27.693,2.271c9.209-0.883,18.262-3.207,26.543-7.18c8.316-3.861,15.922-9.191,22.385-15.732
		c6.523-6.473,11.881-14.064,15.717-22.395c3.965-8.275,6.307-17.326,7.164-26.533c0.902-9.225,0.021-18.617-2.271-27.68
		c-1.16-4.533-2.77-8.959-4.734-13.24c-1.941-4.293-4.268-8.436-6.98-12.346c-10.777-15.764-27.307-27.916-46.619-33.408
		c-9.631-2.811-19.902-3.906-30.279-3.354c-5.193,0.281-10.408,1.033-15.564,2.264c-5.199,1.127-10.293,2.84-15.355,4.852
		c17.191-13.455,40.738-19.713,63.787-16.838c11.525,1.424,22.938,5.064,33.355,10.791c10.432,5.713,19.822,13.441,27.582,22.688
		c15.652,18.471,23.959,43.324,22.756,67.941c-0.551,12.316-3.467,24.551-8.436,35.916c-5.039,11.342-12.223,21.73-20.947,30.516
		c-8.799,8.709-19.172,15.92-30.525,20.928c-11.363,4.961-23.596,7.898-35.908,8.422c-24.617,1.215-49.449-7.121-67.918-22.756
		c-2.334-1.951-4.504-3.932-6.682-6.152c-0.543-0.555-1.145-1.154-1.561-1.623l-1.486-1.615c-1-1.111-1.979-2.248-2.928-3.402
		c-3.801-4.615-7.188-9.563-10.018-14.785c-5.725-10.41-9.365-21.816-10.789-33.342
		C350.136,1219.671,356.382,1196.132,369.82,1178.931z"/>
</g>
<g>
	<rect x="299.324" y="792.495" fill="#FF5A00" width="304.004" height="290.002"/>
	<path fill="#FFFFFF" d="M438.091,943.474l-80.295-99.477l99.477,80.297c5.861,4.734,6.777,13.32,2.045,19.18
		c-4.73,5.863-13.318,6.781-19.18,2.049C439.39,944.917,438.677,944.192,438.091,943.474z"/>
	<path fill="#FFFFFF" d="M369.82,888.929c-2.016,5.061-3.73,10.156-4.865,15.35c-1.229,5.158-1.988,10.373-2.271,15.564
		c-0.557,10.383,0.533,20.654,3.342,30.291c5.486,19.322,17.641,35.869,33.412,46.648c7.844,5.402,16.547,9.344,25.596,11.719
		c9.066,2.299,18.467,3.16,27.693,2.271c9.209-0.883,18.262-3.207,26.543-7.18c8.316-3.861,15.922-9.191,22.385-15.732
		c6.523-6.473,11.881-14.064,15.717-22.395c3.965-8.275,6.307-17.326,7.164-26.533c0.902-9.225,0.021-18.617-2.271-27.68
		c-1.16-4.533-2.77-8.959-4.734-13.24c-1.941-4.293-4.268-8.436-6.98-12.346c-10.777-15.764-27.307-27.916-46.619-33.408
		c-9.631-2.811-19.902-3.906-30.279-3.354c-5.193,0.281-10.408,1.033-15.564,2.264c-5.199,1.127-10.293,2.84-15.355,4.852
		c17.191-13.455,40.738-19.713,63.787-16.838c11.525,1.424,22.938,5.064,33.355,10.791c10.432,5.713,19.822,13.441,27.582,22.688
		c15.652,18.471,23.959,43.324,22.756,67.941c-0.551,12.316-3.467,24.551-8.436,35.916c-5.039,11.342-12.223,21.73-20.947,30.516
		c-8.799,8.709-19.172,15.92-30.525,20.928c-11.363,4.961-23.596,7.898-35.908,8.422c-24.617,1.215-49.449-7.121-67.918-22.756
		c-2.334-1.951-4.504-3.932-6.682-6.152c-0.543-0.555-1.145-1.154-1.561-1.623l-1.486-1.615c-1-1.111-1.979-2.248-2.928-3.402
		c-3.801-4.615-7.188-9.563-10.018-14.785c-5.725-10.41-9.365-21.816-10.789-33.342C350.136,929.669,356.382,906.13,369.82,888.929z
		"/>
</g>
<g>
	<rect x="603.328" y="1662.501" fill="#FF5A00" width="304.004" height="290.002"/>
	<path d="M742.095,1813.479l-80.295-99.477l99.477,80.297c5.861,4.734,6.777,13.32,2.045,19.18
		c-4.73,5.863-13.318,6.781-19.18,2.049C743.394,1814.923,742.681,1814.198,742.095,1813.479z"/>
	<path d="M673.824,1758.935c-2.016,5.061-3.73,10.156-4.865,15.35c-1.229,5.158-1.988,10.373-2.271,15.564
		c-0.557,10.383,0.533,20.654,3.342,30.291c5.486,19.322,17.641,35.869,33.412,46.648c7.844,5.402,16.547,9.344,25.596,11.719
		c9.066,2.299,18.467,3.16,27.693,2.271c9.209-0.883,18.262-3.207,26.543-7.18c8.316-3.861,15.922-9.191,22.385-15.732
		c6.523-6.473,11.881-14.064,15.717-22.395c3.965-8.275,6.307-17.326,7.164-26.533c0.902-9.225,0.021-18.617-2.271-27.68
		c-1.16-4.533-2.77-8.959-4.734-13.24c-1.941-4.293-4.268-8.436-6.98-12.346c-10.777-15.764-27.307-27.916-46.619-33.408
		c-9.631-2.811-19.902-3.906-30.279-3.354c-5.193,0.281-10.408,1.033-15.564,2.264c-5.199,1.127-10.293,2.84-15.355,4.852
		c17.191-13.455,40.738-19.713,63.787-16.838c11.525,1.424,22.938,5.064,33.355,10.791c10.432,5.713,19.822,13.441,27.582,22.688
		c15.652,18.471,23.959,43.324,22.756,67.941c-0.551,12.316-3.467,24.551-8.436,35.916c-5.039,11.342-12.223,21.73-20.947,30.516
		c-8.799,8.709-19.172,15.92-30.525,20.928c-11.363,4.961-23.596,7.898-35.908,8.422c-24.617,1.215-49.449-7.121-67.918-22.756
		c-2.334-1.951-4.504-3.932-6.682-6.152c-0.543-0.555-1.145-1.154-1.561-1.623l-1.486-1.615c-1-1.111-1.979-2.248-2.928-3.402
		c-3.801-4.615-7.188-9.563-10.018-14.785c-5.725-10.41-9.365-21.816-10.789-33.342
		C654.14,1799.675,660.386,1776.136,673.824,1758.935z"/>
</g>
<g>
	<rect x="603.328" y="1372.499" width="304.003" height="290.002"/>
	<path fill="#FFFFFF" d="M742.095,1523.478l-80.295-99.477l99.477,80.298c5.861,4.734,6.777,13.32,2.045,19.179
		c-4.73,5.863-13.318,6.781-19.18,2.047C743.394,1524.919,742.681,1524.196,742.095,1523.478z"/>
	<path fill="#FFFFFF" d="M673.824,1468.932c-2.016,5.063-3.73,10.156-4.865,15.352c-1.229,5.156-1.988,10.371-2.271,15.563
		c-0.557,10.383,0.533,20.655,3.342,30.292c5.486,19.32,17.641,35.867,33.412,46.648c7.844,5.402,16.547,9.344,25.596,11.719
		c9.066,2.297,18.467,3.16,27.693,2.27c9.209-0.883,18.262-3.207,26.543-7.18c8.316-3.859,15.922-9.191,22.385-15.73
		c6.523-6.473,11.881-14.066,15.717-22.395c3.964-8.277,6.306-17.328,7.164-26.534c0.902-9.223,0.021-18.617-2.271-27.68
		c-1.16-4.531-2.77-8.957-4.734-13.238c-1.941-4.293-4.268-8.438-6.98-12.348c-10.777-15.762-27.307-27.914-46.619-33.406
		c-9.631-2.813-19.902-3.906-30.279-3.355c-5.193,0.281-10.408,1.035-15.564,2.266c-5.199,1.125-10.293,2.84-15.355,4.852
		c17.191-13.456,40.738-19.714,63.787-16.839c11.525,1.424,22.938,5.064,33.355,10.792c10.432,5.711,19.822,13.441,27.582,22.688
		c15.652,18.469,23.959,43.324,22.756,67.94c-0.551,12.316-3.467,24.551-8.436,35.914c-5.039,11.344-12.223,21.73-20.947,30.516
		c-8.798,8.711-19.171,15.922-30.525,20.93c-11.363,4.961-23.596,7.898-35.908,8.422c-24.617,1.215-49.449-7.121-67.918-22.758
		c-2.334-1.949-4.504-3.93-6.682-6.152c-0.543-0.555-1.145-1.152-1.561-1.621l-1.486-1.617c-1-1.109-1.979-2.246-2.928-3.402
		c-3.801-4.613-7.188-9.563-10.018-14.785c-5.725-10.41-9.365-21.816-10.789-33.34
		C654.14,1509.674,660.386,1486.135,673.824,1468.932z"/>
</g>
<g>
	<rect x="299.324" y="75.77" fill="#E95A0C" width="468" height="358.363"/>
	<path fill="#FFFFFF" d="M523.62,216.747l-80.295-99.477l99.477,80.297c5.861,4.734,6.777,13.32,2.045,19.18
		c-4.73,5.863-13.318,6.781-19.18,2.049C524.918,218.19,524.206,217.465,523.62,216.747z"/>
	<path fill="#FFFFFF" d="M455.348,162.202c-2.016,5.061-3.73,10.156-4.865,15.35c-1.229,5.158-1.988,10.373-2.271,15.564
		c-0.557,10.383,0.533,20.654,3.342,30.291c5.486,19.322,17.641,35.869,33.412,46.648c7.844,5.402,16.547,9.344,25.596,11.719
		c9.066,2.299,18.467,3.161,27.693,2.271c9.209-0.883,18.262-3.207,26.543-7.18c8.316-3.861,15.922-9.191,22.385-15.732
		c6.523-6.473,11.881-14.064,15.717-22.395c3.965-8.275,6.307-17.326,7.164-26.533c0.902-9.225,0.021-18.617-2.271-27.68
		c-1.16-4.533-2.77-8.959-4.734-13.24c-1.941-4.293-4.268-8.436-6.98-12.346c-10.777-15.764-27.307-27.916-46.619-33.408
		c-9.631-2.811-19.902-3.906-30.279-3.354c-5.193,0.281-10.408,1.033-15.564,2.264c-5.199,1.127-10.293,2.84-15.355,4.852
		c17.191-13.455,40.738-19.712,63.787-16.837c11.525,1.424,22.938,5.064,33.355,10.791c10.432,5.713,19.822,13.441,27.582,22.688
		c15.652,18.471,23.959,43.324,22.756,67.941c-0.551,12.316-3.467,24.551-8.436,35.916c-5.039,11.342-12.223,21.73-20.947,30.516
		c-8.799,8.71-19.172,15.921-30.525,20.929c-11.363,4.961-23.596,7.898-35.908,8.422c-24.617,1.215-49.449-7.121-67.918-22.756
		c-2.334-1.951-4.504-3.933-6.682-6.153c-0.543-0.555-1.145-1.154-1.561-1.623l-1.486-1.615c-1-1.111-1.979-2.248-2.928-3.402
		c-3.801-4.615-7.188-9.563-10.018-14.785c-5.725-10.41-9.365-21.816-10.789-33.342
		C435.665,202.942,441.911,179.403,455.348,162.202z"/>
	<g>
		<path fill="#FFFFFF" d="M373.144,376.589c0.183,10.711-6.354,21.543-21.179,21.543c-5.204,0-11.437,0-16.642,0v-42.359
			c5.205,0,11.438,0,16.642,0C366.488,355.773,372.962,366.121,373.144,376.589z M343.251,390.447h8.714
			c9.621,0,13.433-7.02,13.252-13.918c-0.182-6.596-4.055-13.191-13.252-13.191h-8.714V390.447z"/>
		<path fill="#FFFFFF" d="M399.94,368.298h7.079v29.834h-6.958l-0.363-4.358c-1.694,3.511-6.354,5.205-9.683,5.265
			c-8.834,0.062-15.369-5.385-15.369-15.854c0-10.287,6.838-15.674,15.551-15.612c3.994,0,7.807,1.876,9.501,4.841L399.94,368.298z
			 M382.028,383.185c0,5.688,3.934,9.076,8.835,9.076c11.618,0,11.618-18.093,0-18.093
			C385.961,374.168,382.028,377.498,382.028,383.185z"/>
		<path fill="#FFFFFF" d="M429.708,376.226c-2.117-1.997-4.538-2.662-7.383-2.662c-3.51,0-5.446,1.089-5.446,2.965
			c0,1.937,1.755,3.025,5.567,3.267c5.629,0.363,12.77,1.635,12.77,9.563c0,5.264-4.297,9.802-12.83,9.802
			c-4.719,0-9.439-0.785-13.796-5.324l3.63-5.265c2.117,2.36,6.959,4.115,10.287,4.175c2.784,0.061,5.387-1.391,5.387-3.57
			c0-2.057-1.695-2.904-5.932-3.146c-5.627-0.423-12.344-2.48-12.344-9.258c0-6.898,7.141-9.319,12.586-9.319
			c4.659,0,8.17,0.908,11.619,3.933L429.708,376.226z"/>
		<path fill="#FFFFFF" d="M444.29,355.773v16.58c2.663-3.449,5.931-4.478,9.319-4.478c8.472,0,12.224,5.749,12.224,14.522v15.734
			h-7.382v-15.673c0-5.446-2.845-7.746-6.778-7.746c-4.356,0-7.383,3.691-7.383,8.169v15.25h-7.383v-42.359H444.29z"/>
		<path fill="#FFFFFF" d="M476.419,355.833v16.52c1.754-3.086,6.656-4.78,9.803-4.78c8.715,0,15.188,5.325,15.188,15.612
			c0,9.804-6.597,15.612-15.37,15.612c-3.63,0-7.322-1.211-9.621-4.78l-0.484,4.115h-6.898v-42.299H476.419z M476.904,383.185
			c0,5.386,3.993,8.774,8.652,8.774c4.721,0,8.473-3.57,8.473-8.774c0-5.386-3.752-8.714-8.473-8.714
			C480.897,374.471,476.904,377.981,476.904,383.185z"/>
		<path fill="#FFFFFF" d="M534.32,383.246c0,8.594-5.87,15.552-15.553,15.552c-9.681,0-15.49-6.958-15.49-15.552
			c0-8.532,5.93-15.552,15.431-15.552S534.32,374.713,534.32,383.246z M510.66,383.246c0,4.538,2.723,8.774,8.107,8.774
			c5.387,0,8.109-4.236,8.109-8.774c0-4.479-3.146-8.835-8.109-8.835C513.443,374.411,510.66,378.767,510.66,383.246z"/>
		<path fill="#FFFFFF" d="M561.48,368.298h7.08v29.834h-6.959l-0.363-4.358c-1.694,3.511-6.354,5.205-9.682,5.265
			c-8.836,0.062-15.37-5.385-15.37-15.854c0-10.287,6.838-15.674,15.552-15.612c3.994,0,7.806,1.876,9.5,4.841L561.48,368.298z
			 M543.568,383.185c0,5.688,3.934,9.076,8.835,9.076c11.618,0,11.618-18.093,0-18.093
			C547.501,374.168,543.568,377.498,543.568,383.185z"/>
		<path fill="#FFFFFF" d="M578.601,368.298l0.545,3.449c2.3-3.69,5.385-4.236,8.411-4.236c3.087,0,6.052,1.212,7.685,2.846
			l-3.327,6.414c-1.513-1.271-2.905-1.937-5.325-1.937c-3.873,0-7.443,2.057-7.443,7.563v15.734h-7.383v-29.834H578.601z"/>
		<path fill="#FFFFFF" d="M625.98,355.833v42.299h-6.898l-0.484-4.115c-2.299,3.569-5.991,4.78-9.622,4.78
			c-8.772,0-15.37-5.809-15.37-15.612c0-10.287,6.475-15.612,15.189-15.612c3.146,0,8.047,1.694,9.803,4.78v-16.52H625.98z
			 M600.988,383.185c0,5.204,3.752,8.774,8.473,8.774c4.658,0,8.652-3.389,8.652-8.774c0-5.204-3.994-8.714-8.652-8.714
			C604.74,374.471,600.988,377.799,600.988,383.185z"/>
		<path fill="#FFFFFF" d="M661.134,398.132v-19.244h-26.988v19.244h-3.268v-42.359h3.268v20.149h26.988v-20.149h3.269v42.359
			H661.134z"/>
		<path fill="#FFFFFF" d="M693.326,398.132v-5.387c-2.301,4.116-6.477,5.81-10.651,5.871c-7.988,0-13.495-4.902-13.495-13.192
			v-17.247h2.966v17.187c0,6.776,4.175,10.407,10.65,10.348c6.173-0.061,10.469-4.721,10.469-10.893v-16.642h2.965v29.955H693.326z"
			/>
		<path fill="#FFFFFF" d="M703.912,355.773v19.001c2.42-4.841,7.261-7.021,12.404-7.021c8.352,0,15.008,5.568,15.008,15.432
			c0,9.924-6.596,15.432-14.947,15.432c-5.083,0-9.984-2.543-12.465-7.081v6.597h-2.906v-42.359H703.912z M703.971,383.125
			c0,7.443,5.205,12.587,12.225,12.587c6.716,0,12.223-4.236,12.223-12.526c0-8.411-5.507-12.586-12.223-12.586
			C709.296,370.599,703.971,375.682,703.971,383.125z"/>
	</g>
</g>
<g>
	<rect x="767.324" y="75.77" fill="#575756" width="468" height="358.363"/>
	<path fill="#E95A0C" d="M991.62,216.747l-80.295-99.477l99.477,80.297c5.861,4.734,6.777,13.32,2.045,19.18
		c-4.73,5.863-13.318,6.781-19.18,2.049C992.918,218.19,992.206,217.465,991.62,216.747z"/>
	<path fill="#E95A0C" d="M923.348,162.202c-2.016,5.061-3.73,10.156-4.865,15.35c-1.229,5.158-1.988,10.373-2.271,15.564
		c-0.557,10.383,0.533,20.654,3.342,30.291c5.486,19.322,17.641,35.869,33.412,46.648c7.844,5.402,16.547,9.344,25.596,11.719
		c9.066,2.299,18.467,3.161,27.693,2.271c9.209-0.883,18.262-3.207,26.543-7.18c8.316-3.861,15.922-9.191,22.385-15.732
		c6.523-6.473,11.881-14.064,15.717-22.395c3.965-8.275,6.307-17.326,7.164-26.533c0.902-9.225,0.021-18.617-2.271-27.68
		c-1.16-4.533-2.77-8.959-4.734-13.24c-1.941-4.293-4.268-8.436-6.98-12.346c-10.777-15.764-27.307-27.916-46.619-33.408
		c-9.631-2.811-19.902-3.906-30.279-3.354c-5.193,0.281-10.408,1.033-15.564,2.264c-5.199,1.127-10.293,2.84-15.355,4.852
		c17.191-13.455,40.738-19.712,63.787-16.837c11.525,1.424,22.938,5.064,33.355,10.791c10.432,5.713,19.822,13.441,27.582,22.688
		c15.652,18.471,23.959,43.324,22.756,67.941c-0.551,12.316-3.467,24.551-8.436,35.916c-5.039,11.342-12.223,21.73-20.947,30.516
		c-8.799,8.71-19.172,15.921-30.525,20.929c-11.363,4.961-23.596,7.898-35.908,8.422c-24.617,1.215-49.449-7.121-67.918-22.756
		c-2.334-1.951-4.504-3.933-6.682-6.153c-0.543-0.555-1.145-1.154-1.561-1.623l-1.486-1.615c-1-1.111-1.979-2.248-2.928-3.402
		c-3.801-4.615-7.188-9.563-10.018-14.785c-5.725-10.41-9.365-21.816-10.789-33.342
		C903.665,202.942,909.911,179.403,923.348,162.202z"/>
	<g>
		<path fill="#FFFFFF" d="M841.144,376.589c0.183,10.711-6.354,21.543-21.179,21.543c-5.204,0-11.437,0-16.642,0v-42.359
			c5.205,0,11.438,0,16.642,0C834.488,355.773,840.962,366.121,841.144,376.589z M811.251,390.447h8.714
			c9.621,0,13.433-7.02,13.252-13.918c-0.182-6.596-4.055-13.191-13.252-13.191h-8.714V390.447z"/>
		<path fill="#FFFFFF" d="M867.94,368.298h7.079v29.834h-6.958l-0.363-4.358c-1.694,3.511-6.354,5.205-9.683,5.265
			c-8.834,0.062-15.369-5.385-15.369-15.854c0-10.287,6.838-15.674,15.551-15.612c3.994,0,7.807,1.876,9.501,4.841L867.94,368.298z
			 M850.028,383.185c0,5.688,3.934,9.076,8.835,9.076c11.618,0,11.618-18.093,0-18.093
			C853.961,374.168,850.028,377.498,850.028,383.185z"/>
		<path fill="#FFFFFF" d="M897.708,376.226c-2.117-1.997-4.538-2.662-7.383-2.662c-3.51,0-5.446,1.089-5.446,2.965
			c0,1.937,1.755,3.025,5.567,3.267c5.629,0.363,12.77,1.635,12.77,9.563c0,5.264-4.297,9.802-12.83,9.802
			c-4.719,0-9.439-0.785-13.796-5.324l3.63-5.265c2.117,2.36,6.959,4.115,10.287,4.175c2.784,0.061,5.387-1.391,5.387-3.57
			c0-2.057-1.695-2.904-5.932-3.146c-5.627-0.423-12.344-2.48-12.344-9.258c0-6.898,7.141-9.319,12.586-9.319
			c4.659,0,8.17,0.908,11.619,3.933L897.708,376.226z"/>
		<path fill="#FFFFFF" d="M912.29,355.773v16.58c2.663-3.449,5.931-4.478,9.319-4.478c8.472,0,12.224,5.749,12.224,14.522v15.734
			h-7.382v-15.673c0-5.446-2.845-7.746-6.778-7.746c-4.356,0-7.383,3.691-7.383,8.169v15.25h-7.383v-42.359H912.29z"/>
		<path fill="#FFFFFF" d="M944.419,355.833v16.52c1.754-3.086,6.656-4.78,9.803-4.78c8.715,0,15.188,5.325,15.188,15.612
			c0,9.804-6.597,15.612-15.37,15.612c-3.63,0-7.322-1.211-9.621-4.78l-0.484,4.115h-6.898v-42.299H944.419z M944.904,383.185
			c0,5.386,3.993,8.774,8.652,8.774c4.721,0,8.473-3.57,8.473-8.774c0-5.386-3.752-8.714-8.473-8.714
			C948.897,374.471,944.904,377.981,944.904,383.185z"/>
		<path fill="#FFFFFF" d="M1002.32,383.246c0,8.594-5.87,15.552-15.553,15.552c-9.681,0-15.49-6.958-15.49-15.552
			c0-8.532,5.93-15.552,15.431-15.552S1002.32,374.713,1002.32,383.246z M978.66,383.246c0,4.538,2.723,8.774,8.107,8.774
			c5.387,0,8.109-4.236,8.109-8.774c0-4.479-3.146-8.835-8.109-8.835C981.443,374.411,978.66,378.767,978.66,383.246z"/>
		<path fill="#FFFFFF" d="M1029.48,368.298h7.08v29.834h-6.959l-0.363-4.358c-1.694,3.511-6.354,5.205-9.682,5.265
			c-8.836,0.062-15.37-5.385-15.37-15.854c0-10.287,6.838-15.674,15.552-15.612c3.994,0,7.806,1.876,9.5,4.841L1029.48,368.298z
			 M1011.568,383.185c0,5.688,3.934,9.076,8.835,9.076c11.618,0,11.618-18.093,0-18.093
			C1015.501,374.168,1011.568,377.498,1011.568,383.185z"/>
		<path fill="#FFFFFF" d="M1046.601,368.298l0.545,3.449c2.3-3.69,5.385-4.236,8.411-4.236c3.087,0,6.052,1.212,7.685,2.846
			l-3.327,6.414c-1.513-1.271-2.905-1.937-5.325-1.937c-3.873,0-7.443,2.057-7.443,7.563v15.734h-7.383v-29.834H1046.601z"/>
		<path fill="#FFFFFF" d="M1093.98,355.833v42.299h-6.898l-0.484-4.115c-2.299,3.569-5.991,4.78-9.622,4.78
			c-8.772,0-15.37-5.809-15.37-15.612c0-10.287,6.475-15.612,15.189-15.612c3.146,0,8.047,1.694,9.803,4.78v-16.52H1093.98z
			 M1068.988,383.185c0,5.204,3.752,8.774,8.473,8.774c4.658,0,8.652-3.389,8.652-8.774c0-5.204-3.994-8.714-8.652-8.714
			C1072.74,374.471,1068.988,377.799,1068.988,383.185z"/>
		<path fill="#FFFFFF" d="M1129.134,398.132v-19.244h-26.988v19.244h-3.268v-42.359h3.268v20.149h26.988v-20.149h3.269v42.359
			H1129.134z"/>
		<path fill="#FFFFFF" d="M1161.326,398.132v-5.387c-2.301,4.116-6.477,5.81-10.652,5.871c-7.988,0-13.495-4.902-13.495-13.192
			v-17.247h2.966v17.187c0,6.776,4.175,10.407,10.65,10.348c6.173-0.061,10.468-4.721,10.468-10.893v-16.642h2.965v29.955H1161.326z
			"/>
		<path fill="#FFFFFF" d="M1171.912,355.773v19.001c2.42-4.841,7.26-7.021,12.404-7.021c8.352,0,15.008,5.568,15.008,15.432
			c0,9.924-6.596,15.432-14.947,15.432c-5.084,0-9.984-2.543-12.465-7.081v6.597h-2.906v-42.359H1171.912z M1171.971,383.125
			c0,7.443,5.205,12.587,12.225,12.587c6.717,0,12.223-4.236,12.223-12.526c0-8.411-5.506-12.586-12.223-12.586
			C1177.297,370.599,1171.971,375.682,1171.971,383.125z"/>
	</g>
</g>
<g>
	<rect x="1235.324" y="75.77" fill="none" width="468" height="358.363"/>
	<path fill="#E95A0C" d="M1459.619,216.747l-80.295-99.477l99.476,80.297c5.861,4.734,6.777,13.32,2.045,19.18
		c-4.73,5.863-13.318,6.781-19.179,2.049C1460.918,218.19,1460.205,217.465,1459.619,216.747z"/>
	<path fill="#E95A0C" d="M1391.348,162.202c-2.016,5.061-3.73,10.156-4.865,15.35c-1.229,5.158-1.988,10.373-2.271,15.564
		c-0.557,10.383,0.533,20.654,3.342,30.291c5.486,19.322,17.641,35.869,33.412,46.648c7.844,5.402,16.547,9.344,25.596,11.719
		c9.066,2.299,18.467,3.161,27.693,2.271c9.209-0.883,18.262-3.207,26.543-7.18c8.316-3.861,15.922-9.191,22.385-15.732
		c6.523-6.473,11.881-14.064,15.717-22.395c3.965-8.275,6.307-17.326,7.164-26.533c0.902-9.225,0.021-18.617-2.271-27.68
		c-1.16-4.533-2.77-8.959-4.734-13.24c-1.941-4.293-4.268-8.436-6.98-12.346c-10.777-15.764-27.307-27.916-46.619-33.408
		c-9.631-2.811-19.902-3.906-30.279-3.354c-5.193,0.281-10.408,1.033-15.564,2.264c-5.199,1.127-10.293,2.84-15.355,4.852
		c17.191-13.455,40.738-19.712,63.787-16.837c11.525,1.424,22.938,5.064,33.355,10.791c10.432,5.713,19.822,13.441,27.582,22.688
		c15.652,18.471,23.959,43.324,22.756,67.941c-0.551,12.316-3.467,24.551-8.436,35.916c-5.039,11.342-12.223,21.73-20.947,30.516
		c-8.799,8.71-19.172,15.921-30.525,20.929c-11.363,4.961-23.596,7.898-35.908,8.422c-24.617,1.215-49.449-7.121-67.917-22.756
		c-2.334-1.951-4.504-3.933-6.682-6.153c-0.543-0.555-1.145-1.154-1.561-1.623l-1.486-1.615c-1-1.111-1.979-2.248-2.928-3.402
		c-3.801-4.615-7.188-9.563-10.018-14.785c-5.725-10.41-9.365-21.816-10.789-33.342
		C1371.664,202.942,1377.91,179.403,1391.348,162.202z"/>
	<g>
		<path fill="#575756" d="M1309.145,376.589c0.182,10.711-6.354,21.543-21.18,21.543c-5.203,0-11.436,0-16.641,0v-42.359
			c5.205,0,11.438,0,16.641,0C1302.488,355.773,1308.963,366.121,1309.145,376.589z M1279.252,390.447h8.713
			c9.621,0,13.434-7.02,13.252-13.918c-0.182-6.596-4.055-13.191-13.252-13.191h-8.713V390.447z"/>
		<path fill="#575756" d="M1335.939,368.298h7.08v29.834h-6.959l-0.363-4.358c-1.693,3.511-6.354,5.205-9.682,5.265
			c-8.834,0.062-15.369-5.385-15.369-15.854c0-10.287,6.838-15.674,15.551-15.612c3.994,0,7.807,1.876,9.5,4.841L1335.939,368.298z
			 M1318.027,383.185c0,5.688,3.934,9.076,8.836,9.076c11.617,0,11.617-18.093,0-18.093
			C1321.961,374.168,1318.027,377.498,1318.027,383.185z"/>
		<path fill="#575756" d="M1365.709,376.226c-2.117-1.997-4.539-2.662-7.383-2.662c-3.51,0-5.447,1.089-5.447,2.965
			c0,1.937,1.756,3.025,5.568,3.267c5.629,0.363,12.77,1.635,12.77,9.563c0,5.264-4.297,9.802-12.83,9.802
			c-4.719,0-9.439-0.785-13.797-5.324l3.631-5.265c2.117,2.36,6.959,4.115,10.287,4.175c2.783,0.061,5.387-1.391,5.387-3.57
			c0-2.057-1.695-2.904-5.932-3.146c-5.627-0.423-12.344-2.48-12.344-9.258c0-6.898,7.141-9.319,12.586-9.319
			c4.658,0,8.17,0.908,11.619,3.933L1365.709,376.226z"/>
		<path fill="#575756" d="M1380.289,355.773v16.58c2.664-3.449,5.932-4.478,9.32-4.478c8.471,0,12.223,5.749,12.223,14.522v15.734
			h-7.381v-15.673c0-5.446-2.846-7.746-6.779-7.746c-4.355,0-7.383,3.691-7.383,8.169v15.25h-7.383v-42.359H1380.289z"/>
		<path fill="#575756" d="M1412.42,355.833v16.52c1.754-3.086,6.656-4.78,9.803-4.78c8.715,0,15.188,5.325,15.188,15.612
			c0,9.804-6.596,15.612-15.369,15.612c-3.631,0-7.322-1.211-9.621-4.78l-0.484,4.115h-6.898v-42.299H1412.42z M1412.904,383.185
			c0,5.386,3.992,8.774,8.652,8.774c4.721,0,8.473-3.57,8.473-8.774c0-5.386-3.752-8.714-8.473-8.714
			C1416.896,374.471,1412.904,377.981,1412.904,383.185z"/>
		<path fill="#575756" d="M1470.32,383.246c0,8.594-5.871,15.552-15.552,15.552s-15.49-6.958-15.49-15.552
			c0-8.532,5.93-15.552,15.43-15.552C1464.209,367.694,1470.32,374.713,1470.32,383.246z M1446.66,383.246
			c0,4.538,2.723,8.774,8.107,8.774c5.387,0,8.109-4.236,8.109-8.774c0-4.479-3.146-8.835-8.109-8.835
			C1449.443,374.411,1446.66,378.767,1446.66,383.246z"/>
		<path fill="#575756" d="M1497.48,368.298h7.08v29.834h-6.959l-0.363-4.358c-1.695,3.511-6.354,5.205-9.682,5.265
			c-8.836,0.062-15.371-5.385-15.371-15.854c0-10.287,6.838-15.674,15.553-15.612c3.994,0,7.805,1.876,9.5,4.841L1497.48,368.298z
			 M1479.568,383.185c0,5.688,3.934,9.076,8.834,9.076c11.619,0,11.619-18.093,0-18.093
			C1483.501,374.168,1479.568,377.498,1479.568,383.185z"/>
		<path fill="#575756" d="M1514.601,368.298l0.545,3.449c2.299-3.69,5.385-4.236,8.41-4.236c3.088,0,6.053,1.212,7.686,2.846
			l-3.328,6.414c-1.512-1.271-2.904-1.937-5.324-1.937c-3.873,0-7.443,2.057-7.443,7.563v15.734h-7.383v-29.834H1514.601z"/>
		<path fill="#575756" d="M1561.98,355.833v42.299h-6.898l-0.484-4.115c-2.299,3.569-5.992,4.78-9.623,4.78
			c-8.771,0-15.369-5.809-15.369-15.612c0-10.287,6.475-15.612,15.189-15.612c3.146,0,8.047,1.694,9.803,4.78v-16.52H1561.98z
			 M1536.988,383.185c0,5.204,3.752,8.774,8.473,8.774c4.658,0,8.652-3.389,8.652-8.774c0-5.204-3.994-8.714-8.652-8.714
			C1540.74,374.471,1536.988,377.799,1536.988,383.185z"/>
		<path fill="#575756" d="M1597.134,398.132v-19.244h-26.988v19.244h-3.268v-42.359h3.268v20.149h26.988v-20.149h3.268v42.359
			H1597.134z"/>
		<path fill="#575756" d="M1629.326,398.132v-5.387c-2.301,4.116-6.477,5.81-10.653,5.871c-7.988,0-13.494-4.902-13.494-13.192
			v-17.247h2.965v17.187c0,6.776,4.176,10.407,10.65,10.348c6.174-0.061,10.469-4.721,10.469-10.893v-16.642h2.965v29.955H1629.326z
			"/>
		<path fill="#575756" d="M1639.912,355.773v19.001c2.42-4.841,7.26-7.021,12.404-7.021c8.352,0,15.008,5.568,15.008,15.432
			c0,9.924-6.596,15.432-14.947,15.432c-5.084,0-9.984-2.543-12.465-7.081v6.597h-2.906v-42.359H1639.912z M1639.971,383.125
			c0,7.443,5.205,12.587,12.225,12.587c6.717,0,12.223-4.236,12.223-12.526c0-8.411-5.506-12.586-12.223-12.586
			C1645.297,370.599,1639.971,375.682,1639.971,383.125z"/>
	</g>
</g>
<g>
	<rect x="1704.219" y="75.77" width="468" height="358.363"/>
	<path fill="#FFFFFF" d="M1928.514,216.747l-80.295-99.477l99.477,80.297c5.861,4.734,6.777,13.32,2.045,19.18
		c-4.73,5.863-13.318,6.781-19.18,2.049C1929.813,218.19,1929.1,217.465,1928.514,216.747z"/>
	<path fill="#FFFFFF" d="M1860.242,162.202c-2.016,5.061-3.73,10.156-4.865,15.35c-1.229,5.158-1.988,10.373-2.271,15.564
		c-0.557,10.383,0.533,20.654,3.342,30.291c5.486,19.322,17.641,35.869,33.412,46.648c7.844,5.402,16.547,9.344,25.596,11.719
		c9.066,2.299,18.467,3.161,27.693,2.271c9.209-0.883,18.262-3.207,26.543-7.18c8.316-3.861,15.922-9.191,22.385-15.732
		c6.523-6.473,11.881-14.064,15.717-22.395c3.965-8.275,6.307-17.326,7.164-26.533c0.902-9.225,0.021-18.617-2.271-27.68
		c-1.16-4.533-2.77-8.959-4.734-13.24c-1.941-4.293-4.268-8.436-6.98-12.346c-10.777-15.764-27.307-27.916-46.619-33.408
		c-9.631-2.811-19.902-3.906-30.279-3.354c-5.193,0.281-10.408,1.033-15.564,2.264c-5.199,1.127-10.293,2.84-15.355,4.852
		c17.191-13.455,40.738-19.712,63.787-16.837c11.525,1.424,22.938,5.064,33.355,10.791c10.432,5.713,19.822,13.441,27.582,22.688
		c15.652,18.471,23.959,43.324,22.756,67.941c-0.551,12.316-3.467,24.551-8.436,35.916c-5.039,11.342-12.223,21.73-20.947,30.516
		c-8.799,8.71-19.172,15.921-30.525,20.929c-11.363,4.961-23.596,7.898-35.908,8.422c-24.617,1.215-49.449-7.121-67.918-22.756
		c-2.334-1.951-4.504-3.933-6.682-6.153c-0.543-0.555-1.145-1.154-1.561-1.623l-1.486-1.615c-1-1.111-1.979-2.248-2.928-3.402
		c-3.801-4.615-7.188-9.563-10.018-14.785c-5.725-10.41-9.365-21.816-10.789-33.342
		C1840.559,202.942,1846.805,179.403,1860.242,162.202z"/>
	<g>
		<path fill="#FFFFFF" d="M1778.039,376.589c0.182,10.711-6.354,21.543-21.18,21.543c-5.203,0-11.436,0-16.641,0v-42.359
			c5.205,0,11.438,0,16.641,0C1771.383,355.773,1777.857,366.121,1778.039,376.589z M1748.146,390.447h8.713
			c9.621,0,13.434-7.02,13.252-13.918c-0.182-6.596-4.055-13.191-13.252-13.191h-8.713V390.447z"/>
		<path fill="#FFFFFF" d="M1804.834,368.298h7.08v29.834h-6.959l-0.363-4.358c-1.693,3.511-6.354,5.205-9.682,5.265
			c-8.834,0.062-15.369-5.385-15.369-15.854c0-10.287,6.838-15.674,15.551-15.612c3.994,0,7.807,1.876,9.5,4.841L1804.834,368.298z
			 M1786.922,383.185c0,5.688,3.934,9.076,8.836,9.076c11.617,0,11.617-18.093,0-18.093
			C1790.855,374.168,1786.922,377.498,1786.922,383.185z"/>
		<path fill="#FFFFFF" d="M1834.604,376.226c-2.117-1.997-4.539-2.662-7.383-2.662c-3.51,0-5.447,1.089-5.447,2.965
			c0,1.937,1.756,3.025,5.568,3.267c5.629,0.363,12.77,1.635,12.77,9.563c0,5.264-4.297,9.802-12.83,9.802
			c-4.719,0-9.439-0.785-13.797-5.324l3.631-5.265c2.117,2.36,6.959,4.115,10.287,4.175c2.783,0.061,5.387-1.391,5.387-3.57
			c0-2.057-1.695-2.904-5.932-3.146c-5.627-0.423-12.344-2.48-12.344-9.258c0-6.898,7.141-9.319,12.586-9.319
			c4.658,0,8.17,0.908,11.619,3.933L1834.604,376.226z"/>
		<path fill="#FFFFFF" d="M1849.184,355.773v16.58c2.664-3.449,5.932-4.478,9.32-4.478c8.471,0,12.223,5.749,12.223,14.522v15.734
			h-7.381v-15.673c0-5.446-2.846-7.746-6.779-7.746c-4.355,0-7.383,3.691-7.383,8.169v15.25h-7.383v-42.359H1849.184z"/>
		<path fill="#FFFFFF" d="M1881.314,355.833v16.52c1.754-3.086,6.656-4.78,9.803-4.78c8.715,0,15.188,5.325,15.188,15.612
			c0,9.804-6.596,15.612-15.369,15.612c-3.631,0-7.322-1.211-9.621-4.78l-0.484,4.115h-6.898v-42.299H1881.314z M1881.799,383.185
			c0,5.386,3.992,8.774,8.652,8.774c4.721,0,8.473-3.57,8.473-8.774c0-5.386-3.752-8.714-8.473-8.714
			C1885.791,374.471,1881.799,377.981,1881.799,383.185z"/>
		<path fill="#FFFFFF" d="M1939.215,383.246c0,8.594-5.871,15.552-15.553,15.552s-15.49-6.958-15.49-15.552
			c0-8.532,5.93-15.552,15.43-15.552C1933.104,367.694,1939.215,374.713,1939.215,383.246z M1915.555,383.246
			c0,4.538,2.723,8.774,8.107,8.774c5.387,0,8.109-4.236,8.109-8.774c0-4.479-3.146-8.835-8.109-8.835
			C1918.338,374.411,1915.555,378.767,1915.555,383.246z"/>
		<path fill="#FFFFFF" d="M1966.375,368.298h7.08v29.834h-6.959l-0.363-4.358c-1.695,3.511-6.354,5.205-9.682,5.265
			c-8.836,0.062-15.371-5.385-15.371-15.854c0-10.287,6.838-15.674,15.553-15.612c3.994,0,7.805,1.876,9.5,4.841L1966.375,368.298z
			 M1948.463,383.185c0,5.688,3.934,9.076,8.834,9.076c11.619,0,11.619-18.093,0-18.093
			C1952.396,374.168,1948.463,377.498,1948.463,383.185z"/>
		<path fill="#FFFFFF" d="M1983.496,368.298l0.545,3.449c2.299-3.69,5.385-4.236,8.41-4.236c3.088,0,6.053,1.212,7.686,2.846
			l-3.328,6.414c-1.512-1.271-2.904-1.937-5.324-1.937c-3.873,0-7.443,2.057-7.443,7.563v15.734h-7.383v-29.834H1983.496z"/>
		<path fill="#FFFFFF" d="M2030.875,355.833v42.299h-6.898l-0.484-4.115c-2.299,3.569-5.992,4.78-9.623,4.78
			c-8.771,0-15.369-5.809-15.369-15.612c0-10.287,6.475-15.612,15.189-15.612c3.146,0,8.047,1.694,9.803,4.78v-16.52H2030.875z
			 M2005.883,383.185c0,5.204,3.752,8.774,8.473,8.774c4.658,0,8.652-3.389,8.652-8.774c0-5.204-3.994-8.714-8.652-8.714
			C2009.635,374.471,2005.883,377.799,2005.883,383.185z"/>
		<path fill="#FFFFFF" d="M2066.029,398.132v-19.244h-26.988v19.244h-3.268v-42.359h3.268v20.149h26.988v-20.149h3.268v42.359
			H2066.029z"/>
		<path fill="#FFFFFF" d="M2098.221,398.132v-5.387c-2.301,4.116-6.477,5.81-10.652,5.871c-7.988,0-13.494-4.902-13.494-13.192
			v-17.247h2.965v17.187c0,6.776,4.176,10.407,10.65,10.348c6.174-0.061,10.469-4.721,10.469-10.893v-16.642h2.965v29.955H2098.221z
			"/>
		<path fill="#FFFFFF" d="M2108.807,355.773v19.001c2.42-4.841,7.26-7.021,12.404-7.021c8.352,0,15.008,5.568,15.008,15.432
			c0,9.924-6.596,15.432-14.947,15.432c-5.084,0-9.984-2.543-12.465-7.081v6.597h-2.906v-42.359H2108.807z M2108.865,383.125
			c0,7.443,5.205,12.587,12.225,12.587c6.717,0,12.223-4.236,12.223-12.526c0-8.411-5.506-12.586-12.223-12.586
			C2114.191,370.599,2108.865,375.682,2108.865,383.125z"/>
	</g>
</g>
<g>
	<rect x="2172.217" y="75.77" fill="none" width="468" height="358.363"/>
	<path d="M2396.512,216.747l-80.295-99.477l99.477,80.297c5.861,4.734,6.777,13.32,2.045,19.18
		c-4.73,5.863-13.318,6.781-19.18,2.049C2397.811,218.19,2397.098,217.465,2396.512,216.747z"/>
	<path d="M2328.24,162.202c-2.016,5.061-3.73,10.156-4.865,15.35c-1.229,5.158-1.988,10.373-2.271,15.564
		c-0.557,10.383,0.533,20.654,3.342,30.291c5.486,19.322,17.641,35.869,33.412,46.648c7.844,5.402,16.547,9.344,25.596,11.719
		c9.066,2.299,18.467,3.161,27.693,2.271c9.209-0.883,18.262-3.207,26.543-7.18c8.316-3.861,15.922-9.191,22.385-15.732
		c6.523-6.473,11.881-14.064,15.717-22.395c3.965-8.275,6.307-17.326,7.164-26.533c0.902-9.225,0.021-18.617-2.271-27.68
		c-1.16-4.533-2.77-8.959-4.734-13.24c-1.941-4.293-4.268-8.436-6.98-12.346c-10.777-15.764-27.307-27.916-46.619-33.408
		c-9.631-2.811-19.902-3.906-30.279-3.354c-5.193,0.281-10.408,1.033-15.564,2.264c-5.199,1.127-10.293,2.84-15.355,4.852
		c17.191-13.455,40.738-19.712,63.787-16.837c11.525,1.424,22.938,5.064,33.355,10.791c10.432,5.713,19.822,13.441,27.582,22.688
		c15.652,18.471,23.959,43.324,22.756,67.941c-0.551,12.316-3.467,24.551-8.436,35.916c-5.039,11.342-12.223,21.73-20.947,30.516
		c-8.799,8.71-19.172,15.921-30.525,20.929c-11.363,4.961-23.596,7.898-35.908,8.422c-24.617,1.215-49.449-7.121-67.918-22.756
		c-2.334-1.951-4.504-3.933-6.682-6.153c-0.543-0.555-1.145-1.154-1.561-1.623l-1.486-1.615c-1-1.111-1.979-2.248-2.928-3.402
		c-3.801-4.615-7.188-9.563-10.018-14.785c-5.725-10.41-9.365-21.816-10.789-33.342
		C2308.557,202.942,2314.803,179.403,2328.24,162.202z"/>
	<g>
		<path d="M2246.037,376.589c0.182,10.711-6.354,21.543-21.18,21.543c-5.203,0-11.436,0-16.641,0v-42.359c5.205,0,11.438,0,16.641,0
			C2239.381,355.773,2245.855,366.121,2246.037,376.589z M2216.145,390.447h8.713c9.621,0,13.434-7.02,13.252-13.918
			c-0.182-6.596-4.055-13.191-13.252-13.191h-8.713V390.447z"/>
		<path d="M2272.832,368.298h7.08v29.834h-6.959l-0.363-4.358c-1.693,3.511-6.354,5.205-9.682,5.265
			c-8.834,0.062-15.369-5.385-15.369-15.854c0-10.287,6.838-15.674,15.551-15.612c3.994,0,7.807,1.876,9.5,4.841L2272.832,368.298z
			 M2254.92,383.185c0,5.688,3.934,9.076,8.836,9.076c11.617,0,11.617-18.093,0-18.093
			C2258.854,374.168,2254.92,377.498,2254.92,383.185z"/>
		<path d="M2302.602,376.226c-2.117-1.997-4.539-2.662-7.383-2.662c-3.51,0-5.447,1.089-5.447,2.965
			c0,1.937,1.756,3.025,5.568,3.267c5.629,0.363,12.77,1.635,12.77,9.563c0,5.264-4.297,9.802-12.83,9.802
			c-4.719,0-9.439-0.785-13.797-5.324l3.631-5.265c2.117,2.36,6.959,4.115,10.287,4.175c2.783,0.061,5.387-1.391,5.387-3.57
			c0-2.057-1.695-2.904-5.932-3.146c-5.627-0.423-12.344-2.48-12.344-9.258c0-6.898,7.141-9.319,12.586-9.319
			c4.658,0,8.17,0.908,11.619,3.933L2302.602,376.226z"/>
		<path d="M2317.182,355.773v16.58c2.664-3.449,5.932-4.478,9.32-4.478c8.471,0,12.223,5.749,12.223,14.522v15.734h-7.381v-15.673
			c0-5.446-2.846-7.746-6.779-7.746c-4.355,0-7.383,3.691-7.383,8.169v15.25h-7.383v-42.359H2317.182z"/>
		<path d="M2349.313,355.833v16.52c1.754-3.086,6.656-4.78,9.803-4.78c8.715,0,15.188,5.325,15.188,15.612
			c0,9.804-6.596,15.612-15.369,15.612c-3.631,0-7.322-1.211-9.621-4.78l-0.484,4.115h-6.898v-42.299H2349.313z M2349.797,383.185
			c0,5.386,3.992,8.774,8.652,8.774c4.721,0,8.473-3.57,8.473-8.774c0-5.386-3.752-8.714-8.473-8.714
			C2353.789,374.471,2349.797,377.981,2349.797,383.185z"/>
		<path d="M2407.213,383.246c0,8.594-5.871,15.552-15.553,15.552s-15.49-6.958-15.49-15.552c0-8.532,5.93-15.552,15.43-15.552
			C2401.102,367.694,2407.213,374.713,2407.213,383.246z M2383.553,383.246c0,4.538,2.723,8.774,8.107,8.774
			c5.387,0,8.109-4.236,8.109-8.774c0-4.479-3.146-8.835-8.109-8.835C2386.336,374.411,2383.553,378.767,2383.553,383.246z"/>
		<path d="M2434.373,368.298h7.08v29.834h-6.959l-0.363-4.358c-1.695,3.511-6.354,5.205-9.682,5.265
			c-8.836,0.062-15.371-5.385-15.371-15.854c0-10.287,6.838-15.674,15.553-15.612c3.994,0,7.805,1.876,9.5,4.841L2434.373,368.298z
			 M2416.461,383.185c0,5.688,3.934,9.076,8.834,9.076c11.619,0,11.619-18.093,0-18.093
			C2420.395,374.168,2416.461,377.498,2416.461,383.185z"/>
		<path d="M2451.494,368.298l0.545,3.449c2.299-3.69,5.385-4.236,8.41-4.236c3.088,0,6.053,1.212,7.686,2.846l-3.328,6.414
			c-1.512-1.271-2.904-1.937-5.324-1.937c-3.873,0-7.443,2.057-7.443,7.563v15.734h-7.383v-29.834H2451.494z"/>
		<path d="M2498.873,355.833v42.299h-6.898l-0.484-4.115c-2.299,3.569-5.992,4.78-9.623,4.78c-8.771,0-15.369-5.809-15.369-15.612
			c0-10.287,6.475-15.612,15.189-15.612c3.146,0,8.047,1.694,9.803,4.78v-16.52H2498.873z M2473.881,383.185
			c0,5.204,3.752,8.774,8.473,8.774c4.658,0,8.652-3.389,8.652-8.774c0-5.204-3.994-8.714-8.652-8.714
			C2477.633,374.471,2473.881,377.799,2473.881,383.185z"/>
		<path d="M2534.027,398.132v-19.244h-26.988v19.244h-3.268v-42.359h3.268v20.149h26.988v-20.149h3.268v42.359H2534.027z"/>
		<path d="M2566.219,398.132v-5.387c-2.301,4.116-6.477,5.81-10.652,5.871c-7.988,0-13.494-4.902-13.494-13.192v-17.247h2.965
			v17.187c0,6.776,4.176,10.407,10.65,10.348c6.174-0.061,10.469-4.721,10.469-10.893v-16.642h2.965v29.955H2566.219z"/>
		<path d="M2576.805,355.773v19.001c2.42-4.841,7.26-7.021,12.404-7.021c8.352,0,15.008,5.568,15.008,15.432
			c0,9.924-6.596,15.432-14.947,15.432c-5.084,0-9.984-2.543-12.465-7.081v6.597h-2.906v-42.359H2576.805z M2576.863,383.125
			c0,7.443,5.205,12.587,12.225,12.587c6.717,0,12.223-4.236,12.223-12.526c0-8.411-5.506-12.586-12.223-12.586
			C2582.189,370.599,2576.863,375.682,2576.863,383.125z"/>
	</g>
</g>
<g>
	<rect x="2640.217" y="75.77" fill="#E95A0C" width="468" height="358.363"/>
	<path d="M2864.512,216.747l-80.295-99.477l99.477,80.297c5.861,4.734,6.777,13.32,2.045,19.18
		c-4.73,5.863-13.318,6.781-19.18,2.049C2865.811,218.19,2865.098,217.465,2864.512,216.747z"/>
	<path d="M2796.24,162.202c-2.016,5.061-3.73,10.156-4.865,15.35c-1.229,5.158-1.988,10.373-2.271,15.564
		c-0.557,10.383,0.533,20.654,3.342,30.291c5.486,19.322,17.641,35.869,33.412,46.648c7.844,5.402,16.547,9.344,25.596,11.719
		c9.066,2.299,18.467,3.161,27.693,2.271c9.209-0.883,18.262-3.207,26.543-7.18c8.316-3.861,15.922-9.191,22.385-15.732
		c6.523-6.473,11.881-14.064,15.717-22.395c3.965-8.275,6.307-17.326,7.164-26.533c0.902-9.225,0.021-18.617-2.271-27.68
		c-1.16-4.533-2.77-8.959-4.734-13.24c-1.941-4.293-4.268-8.436-6.98-12.346c-10.777-15.764-27.307-27.916-46.619-33.408
		c-9.631-2.811-19.902-3.906-30.279-3.354c-5.193,0.281-10.408,1.033-15.564,2.264c-5.199,1.127-10.293,2.84-15.355,4.852
		c17.191-13.455,40.738-19.712,63.787-16.837c11.525,1.424,22.938,5.064,33.355,10.791c10.432,5.713,19.822,13.441,27.582,22.688
		c15.652,18.471,23.959,43.324,22.756,67.941c-0.551,12.316-3.467,24.551-8.436,35.916c-5.039,11.342-12.223,21.73-20.947,30.516
		c-8.799,8.71-19.172,15.921-30.525,20.929c-11.363,4.961-23.596,7.898-35.908,8.422c-24.617,1.215-49.449-7.121-67.918-22.756
		c-2.334-1.951-4.504-3.933-6.682-6.153c-0.543-0.555-1.145-1.154-1.561-1.623l-1.486-1.615c-1-1.111-1.979-2.248-2.928-3.402
		c-3.801-4.615-7.188-9.563-10.018-14.785c-5.725-10.41-9.365-21.816-10.789-33.342
		C2776.557,202.942,2782.803,179.403,2796.24,162.202z"/>
	<g>
		<path d="M2714.037,376.589c0.182,10.711-6.354,21.543-21.18,21.543c-5.203,0-11.436,0-16.641,0v-42.359c5.205,0,11.438,0,16.641,0
			C2707.381,355.773,2713.855,366.121,2714.037,376.589z M2684.145,390.447h8.713c9.621,0,13.434-7.02,13.252-13.918
			c-0.182-6.596-4.055-13.191-13.252-13.191h-8.713V390.447z"/>
		<path d="M2740.832,368.298h7.08v29.834h-6.959l-0.363-4.358c-1.693,3.511-6.354,5.205-9.682,5.265
			c-8.834,0.062-15.369-5.385-15.369-15.854c0-10.287,6.838-15.674,15.551-15.612c3.994,0,7.807,1.876,9.5,4.841L2740.832,368.298z
			 M2722.92,383.185c0,5.688,3.934,9.076,8.836,9.076c11.617,0,11.617-18.093,0-18.093
			C2726.854,374.168,2722.92,377.498,2722.92,383.185z"/>
		<path d="M2770.602,376.226c-2.117-1.997-4.539-2.662-7.383-2.662c-3.51,0-5.447,1.089-5.447,2.965
			c0,1.937,1.756,3.025,5.568,3.267c5.629,0.363,12.77,1.635,12.77,9.563c0,5.264-4.297,9.802-12.83,9.802
			c-4.719,0-9.439-0.785-13.797-5.324l3.631-5.265c2.117,2.36,6.959,4.115,10.287,4.175c2.783,0.061,5.387-1.391,5.387-3.57
			c0-2.057-1.695-2.904-5.932-3.146c-5.627-0.423-12.344-2.48-12.344-9.258c0-6.898,7.141-9.319,12.586-9.319
			c4.658,0,8.17,0.908,11.619,3.933L2770.602,376.226z"/>
		<path d="M2785.182,355.773v16.58c2.664-3.449,5.932-4.478,9.32-4.478c8.471,0,12.223,5.749,12.223,14.522v15.734h-7.381v-15.673
			c0-5.446-2.846-7.746-6.779-7.746c-4.355,0-7.383,3.691-7.383,8.169v15.25h-7.383v-42.359H2785.182z"/>
		<path d="M2817.313,355.833v16.52c1.754-3.086,6.656-4.78,9.803-4.78c8.715,0,15.188,5.325,15.188,15.612
			c0,9.804-6.596,15.612-15.369,15.612c-3.631,0-7.322-1.211-9.621-4.78l-0.484,4.115h-6.898v-42.299H2817.313z M2817.797,383.185
			c0,5.386,3.992,8.774,8.652,8.774c4.721,0,8.473-3.57,8.473-8.774c0-5.386-3.752-8.714-8.473-8.714
			C2821.789,374.471,2817.797,377.981,2817.797,383.185z"/>
		<path d="M2875.213,383.246c0,8.594-5.871,15.552-15.553,15.552s-15.49-6.958-15.49-15.552c0-8.532,5.93-15.552,15.43-15.552
			C2869.102,367.694,2875.213,374.713,2875.213,383.246z M2851.553,383.246c0,4.538,2.723,8.774,8.107,8.774
			c5.387,0,8.109-4.236,8.109-8.774c0-4.479-3.146-8.835-8.109-8.835C2854.336,374.411,2851.553,378.767,2851.553,383.246z"/>
		<path d="M2902.373,368.298h7.08v29.834h-6.959l-0.363-4.358c-1.695,3.511-6.354,5.205-9.682,5.265
			c-8.836,0.062-15.371-5.385-15.371-15.854c0-10.287,6.838-15.674,15.553-15.612c3.994,0,7.805,1.876,9.5,4.841L2902.373,368.298z
			 M2884.461,383.185c0,5.688,3.934,9.076,8.834,9.076c11.619,0,11.619-18.093,0-18.093
			C2888.395,374.168,2884.461,377.498,2884.461,383.185z"/>
		<path d="M2919.494,368.298l0.545,3.449c2.299-3.69,5.385-4.236,8.41-4.236c3.088,0,6.053,1.212,7.686,2.846l-3.328,6.414
			c-1.512-1.271-2.904-1.937-5.324-1.937c-3.873,0-7.443,2.057-7.443,7.563v15.734h-7.383v-29.834H2919.494z"/>
		<path d="M2966.873,355.833v42.299h-6.898l-0.484-4.115c-2.299,3.569-5.992,4.78-9.623,4.78c-8.771,0-15.369-5.809-15.369-15.612
			c0-10.287,6.475-15.612,15.189-15.612c3.146,0,8.047,1.694,9.803,4.78v-16.52H2966.873z M2941.881,383.185
			c0,5.204,3.752,8.774,8.473,8.774c4.658,0,8.652-3.389,8.652-8.774c0-5.204-3.994-8.714-8.652-8.714
			C2945.633,374.471,2941.881,377.799,2941.881,383.185z"/>
		<path d="M3002.027,398.132v-19.244h-26.988v19.244h-3.268v-42.359h3.268v20.149h26.988v-20.149h3.268v42.359H3002.027z"/>
		<path d="M3034.219,398.132v-5.387c-2.301,4.116-6.477,5.81-10.652,5.871c-7.988,0-13.494-4.902-13.494-13.192v-17.247h2.965
			v17.187c0,6.776,4.176,10.407,10.65,10.348c6.174-0.061,10.469-4.721,10.469-10.893v-16.642h2.965v29.955H3034.219z"/>
		<path d="M3044.805,355.773v19.001c2.42-4.841,7.26-7.021,12.404-7.021c8.352,0,15.008,5.568,15.008,15.432
			c0,9.924-6.596,15.432-14.947,15.432c-5.084,0-9.984-2.543-12.465-7.081v6.597h-2.906v-42.359H3044.805z M3044.863,383.125
			c0,7.443,5.205,12.587,12.225,12.587c6.717,0,12.223-4.236,12.223-12.526c0-8.411-5.506-12.586-12.223-12.586
			C3050.189,370.599,3044.863,375.682,3044.863,383.125z"/>
	</g>
</g>
</svg>
