<?xml version="1.0" encoding="UTF-8"?>
<svg width="469px" height="360px" viewBox="0 0 469 360" version="1.1" xmlns="http://www.w3.org/2000/svg" xmlns:xlink="http://www.w3.org/1999/xlink">
    <!-- Generator: Sketch 49.2 (51160) - http://www.bohemiancoding.com/sketch -->
    <title>Untitled</title>
    <desc>Created with Sketch.</desc>
    <defs></defs>
    <g id="Page-1" stroke="none" stroke-width="1" fill="none" fill-rule="evenodd">
        <g id="logo-vertical-std">
            <g id="Group">
                <rect id="Rectangle-path" x="0.324" y="0.77" width="468" height="358.363"></rect>
                <path d="M224.619,141.747 L144.324,42.27 L243.8,122.567 C249.661,127.301 250.577,135.887 245.845,141.747 C241.115,147.61 232.527,148.528 226.666,143.796 C225.918,143.19 225.205,142.465 224.619,141.747 Z" id="Shape" fill="#E95A0C" fill-rule="nonzero"></path>
                <path d="M156.348,87.202 C154.332,92.263 152.618,97.358 151.483,102.552 C150.254,107.71 149.495,112.925 149.212,118.116 C148.655,128.499 149.745,138.77 152.554,148.407 C158.04,167.729 170.195,184.276 185.966,195.055 C193.81,200.457 202.513,204.399 211.562,206.774 C220.628,209.073 230.029,209.935 239.255,209.045 C248.464,208.162 257.517,205.838 265.798,201.865 C274.114,198.004 281.72,192.674 288.183,186.133 C294.706,179.66 300.064,172.069 303.9,163.738 C307.865,155.463 310.207,146.412 311.064,137.205 C311.966,127.98 311.085,118.588 308.793,109.525 C307.633,104.992 306.023,100.566 304.059,96.285 C302.118,91.992 299.791,87.849 297.079,83.939 C286.302,68.175 269.772,56.023 250.46,50.531 C240.829,47.72 230.558,46.625 220.181,47.177 C214.988,47.458 209.773,48.21 204.617,49.441 C199.418,50.568 194.324,52.281 189.262,54.293 C206.453,40.838 230,34.581 253.049,37.456 C264.574,38.88 275.987,42.52 286.404,48.247 C296.836,53.96 306.226,61.688 313.986,70.935 C329.638,89.406 337.945,114.259 336.742,138.876 C336.191,151.192 333.275,163.427 328.306,174.792 C323.267,186.134 316.083,196.522 307.359,205.308 C298.56,214.018 288.187,221.229 276.834,226.237 C265.471,231.198 253.238,234.135 240.926,234.659 C216.309,235.874 191.477,227.538 173.009,211.903 C170.675,209.952 168.505,207.97 166.327,205.75 C165.784,205.195 165.182,204.596 164.766,204.127 L163.28,202.512 C162.28,201.401 161.301,200.264 160.352,199.11 C156.551,194.495 153.164,189.547 150.334,184.325 C144.609,173.915 140.969,162.509 139.545,150.983 C136.664,127.942 142.91,104.403 156.348,87.202 Z" id="Shape" fill="#E95A0C" fill-rule="nonzero"></path>
                <g id="Shape" transform="translate(36.000000, 280.000000)" fill="#575756" fill-rule="nonzero">
                    <path d="M38.145,21.589 C38.327,32.3 31.791,43.132 16.965,43.132 C11.762,43.132 5.529,43.132 0.324,43.132 L0.324,0.773 C5.529,0.773 11.762,0.773 16.965,0.773 C31.488,0.773 37.963,11.121 38.145,21.589 Z M8.252,35.447 L16.965,35.447 C26.586,35.447 30.399,28.427 30.217,21.529 C30.035,14.933 26.162,8.338 16.965,8.338 L8.252,8.338 L8.252,35.447 Z"></path>
                    <path d="M64.939,13.298 L72.019,13.298 L72.019,43.132 L65.06,43.132 L64.697,38.774 C63.004,42.285 58.343,43.979 55.015,44.039 C46.181,44.101 39.646,38.654 39.646,28.185 C39.646,17.898 46.484,12.511 55.197,12.573 C59.191,12.573 63.004,14.449 64.697,17.414 L64.939,13.298 Z M47.027,28.185 C47.027,33.873 50.961,37.261 55.863,37.261 C67.48,37.261 67.48,19.168 55.863,19.168 C50.961,19.168 47.027,22.498 47.027,28.185 Z"></path>
                    <path d="M94.709,21.226 C92.592,19.229 90.17,18.564 87.326,18.564 C83.816,18.564 81.879,19.653 81.879,21.529 C81.879,23.466 83.635,24.554 87.447,24.796 C93.076,25.159 100.217,26.431 100.217,34.359 C100.217,39.623 95.92,44.161 87.387,44.161 C82.668,44.161 77.948,43.376 73.59,38.837 L77.221,33.572 C79.338,35.932 84.18,37.687 87.508,37.747 C90.291,37.808 92.895,36.356 92.895,34.177 C92.895,32.12 91.2,31.273 86.963,31.031 C81.336,30.608 74.619,28.551 74.619,21.773 C74.619,14.875 81.76,12.454 87.205,12.454 C91.863,12.454 95.375,13.362 98.824,16.387 L94.709,21.226 Z"></path>
                    <path d="M109.289,0.773 L109.289,17.353 C111.953,13.904 115.221,12.875 118.609,12.875 C127.08,12.875 130.832,18.624 130.832,27.397 L130.832,43.131 L123.451,43.131 L123.451,27.458 C123.451,22.012 120.605,19.712 116.672,19.712 C112.317,19.712 109.289,23.403 109.289,27.881 L109.289,43.131 L101.906,43.131 L101.906,0.772 L109.289,0.772 L109.289,0.773 Z"></path>
                    <path d="M141.42,0.833 L141.42,17.353 C143.174,14.267 148.076,12.573 151.223,12.573 C159.938,12.573 166.411,17.898 166.411,28.185 C166.411,37.989 159.815,43.797 151.042,43.797 C147.411,43.797 143.72,42.586 141.421,39.017 L140.937,43.132 L134.039,43.132 L134.039,0.833 L141.42,0.833 Z M141.904,28.185 C141.904,33.571 145.896,36.959 150.556,36.959 C155.277,36.959 159.029,33.389 159.029,28.185 C159.029,22.799 155.277,19.471 150.556,19.471 C145.896,19.471 141.904,22.981 141.904,28.185 Z"></path>
                    <path d="M199.32,28.246 C199.32,36.84 193.449,43.798 183.768,43.798 C174.087,43.798 168.278,36.84 168.278,28.246 C168.278,19.714 174.208,12.694 183.708,12.694 C193.209,12.694 199.32,19.713 199.32,28.246 Z M175.66,28.246 C175.66,32.784 178.383,37.02 183.767,37.02 C189.154,37.02 191.876,32.784 191.876,28.246 C191.876,23.767 188.73,19.411 183.767,19.411 C178.443,19.411 175.66,23.767 175.66,28.246 Z"></path>
                    <path d="M226.48,13.298 L233.56,13.298 L233.56,43.132 L226.601,43.132 L226.238,38.774 C224.543,42.285 219.884,43.979 216.556,44.039 C207.72,44.101 201.185,38.654 201.185,28.185 C201.185,17.898 208.023,12.511 216.738,12.573 C220.732,12.573 224.543,14.449 226.238,17.414 L226.48,13.298 Z M208.568,28.185 C208.568,33.873 212.502,37.261 217.402,37.261 C229.021,37.261 229.021,19.168 217.402,19.168 C212.501,19.168 208.568,22.498 208.568,28.185 Z"></path>
                    <path d="M243.601,13.298 L244.146,16.747 C246.445,13.057 249.531,12.511 252.556,12.511 C255.644,12.511 258.609,13.723 260.242,15.357 L256.914,21.771 C255.402,20.5 254.01,19.834 251.59,19.834 C247.717,19.834 244.147,21.891 244.147,27.397 L244.147,43.131 L236.764,43.131 L236.764,13.297 L243.601,13.297 L243.601,13.298 Z"></path>
                    <path d="M290.98,0.833 L290.98,43.132 L284.082,43.132 L283.598,39.017 C281.299,42.586 277.606,43.797 273.975,43.797 C265.204,43.797 258.606,37.988 258.606,28.185 C258.606,17.898 265.081,12.573 273.795,12.573 C276.941,12.573 281.842,14.267 283.598,17.353 L283.598,0.833 L290.98,0.833 Z M265.988,28.185 C265.988,33.389 269.74,36.959 274.461,36.959 C279.119,36.959 283.113,33.57 283.113,28.185 C283.113,22.981 279.119,19.471 274.461,19.471 C269.74,19.471 265.988,22.799 265.988,28.185 Z"></path>
                    <polygon points="326.134 43.132 326.134 23.888 299.146 23.888 299.146 43.132 295.878 43.132 295.878 0.773 299.146 0.773 299.146 20.922 326.134 20.922 326.134 0.773 329.402 0.773 329.402 43.132"></polygon>
                    <path d="M358.326,43.132 L358.326,37.745 C356.025,41.861 351.849,43.555 347.673,43.616 C339.685,43.616 334.179,38.714 334.179,30.424 L334.179,13.177 L337.144,13.177 L337.144,30.364 C337.144,37.14 341.32,40.771 347.794,40.712 C353.968,40.651 358.263,35.991 358.263,29.819 L358.263,13.177 L361.228,13.177 L361.228,43.132 L358.326,43.132 Z"></path>
                    <path d="M368.912,0.773 L368.912,19.774 C371.332,14.933 376.172,12.753 381.316,12.753 C389.668,12.753 396.324,18.321 396.324,28.185 C396.324,38.109 389.728,43.617 381.377,43.617 C376.293,43.617 371.393,41.074 368.912,36.536 L368.912,43.133 L366.006,43.133 L366.006,0.774 L368.912,0.774 L368.912,0.773 Z M368.971,28.125 C368.971,35.568 374.176,40.712 381.196,40.712 C387.913,40.712 393.419,36.476 393.419,28.186 C393.419,19.775 387.913,15.6 381.196,15.6 C374.297,15.599 368.971,20.682 368.971,28.125 Z"></path>
                </g>
            </g>
        </g>
    </g>
</svg>