<?xml version="1.0" encoding="UTF-8"?>
<svg width="1284px" height="291px" viewBox="0 0 1284 291" version="1.1" xmlns="http://www.w3.org/2000/svg" xmlns:xlink="http://www.w3.org/1999/xlink">
    <!-- Generator: Sketch 49.2 (51160) - http://www.bohemiancoding.com/sketch -->
    <title>Untitled 2</title>
    <desc>Created with Sketch.</desc>
    <defs></defs>
    <g id="Page-1" stroke="none" stroke-width="1" fill="none" fill-rule="evenodd">
        <g id="logo-horizontal-white" fill-rule="nonzero">
            <g id="Group">
                <rect id="Rectangle-path" fill="#FF5A00" x="0.337" y="0.486" width="1283.331" height="290.006"></rect>
                <g id="Shape" transform="translate(304.000000, 92.000000)" fill="#FFFFFF">
                    <path d="M89.103,49.539 C89.531,74.586 74.246,99.914 39.58,99.914 C27.41,99.914 12.836,99.914 0.666,99.914 L0.666,0.863 C12.836,0.863 27.41,0.863 39.58,0.863 C73.54,0.863 88.679,25.061 89.103,49.539 Z M19.202,81.943 L39.579,81.943 C62.077,81.943 70.991,65.529 70.567,49.398 C70.143,33.974 61.087,18.55 39.579,18.55 L19.202,18.55 L19.202,81.943 Z"></path>
                    <path d="M151.763,30.152 L168.318,30.152 L168.318,99.914 L152.047,99.914 L151.197,89.725 C147.234,97.934 136.338,101.895 128.556,102.036 C107.898,102.179 92.615,89.444 92.615,64.964 C92.615,40.909 108.605,28.314 128.98,28.456 C138.32,28.456 147.234,32.843 151.197,39.776 L151.763,30.152 Z M109.878,64.963 C109.878,78.266 119.075,86.188 130.536,86.188 C157.704,86.188 157.704,43.879 130.536,43.879 C119.075,43.879 109.878,51.662 109.878,64.963 Z"></path>
                    <path d="M221.374,48.689 C216.421,44.019 210.761,42.464 204.11,42.464 C195.903,42.464 191.374,45.011 191.374,49.398 C191.374,53.925 195.478,56.472 204.394,57.037 C217.554,57.887 234.251,60.859 234.251,79.396 C234.251,91.705 224.204,102.318 204.251,102.318 C193.216,102.318 182.177,100.48 171.991,89.867 L180.479,77.556 C185.43,83.076 196.752,87.179 204.534,87.32 C211.044,87.461 217.13,84.066 217.13,78.97 C217.13,74.159 213.167,72.179 203.261,71.613 C190.103,70.623 174.396,65.812 174.396,49.965 C174.396,33.832 191.093,28.172 203.828,28.172 C214.723,28.172 222.932,30.295 230.998,37.369 L221.374,48.689 Z"></path>
                    <path d="M255.47,0.863 L255.47,39.633 C261.697,31.569 269.337,29.162 277.261,29.162 C297.072,29.162 305.845,42.605 305.845,63.123 L305.845,99.914 L288.583,99.914 L288.583,63.266 C288.583,50.53 281.931,45.153 272.733,45.153 C262.545,45.153 255.469,53.786 255.469,64.257 L255.469,99.915 L238.205,99.915 L238.205,0.864 L255.47,0.864 L255.47,0.863 Z"></path>
                    <path d="M330.601,1.004 L330.601,39.633 C334.705,32.418 346.165,28.455 353.525,28.455 C373.902,28.455 389.041,40.908 389.041,64.963 C389.041,87.887 373.617,101.471 353.1,101.471 C344.612,101.471 335.979,98.639 330.602,90.291 L329.469,99.914 L313.338,99.914 L313.338,1.004 L330.601,1.004 Z M331.733,64.963 C331.733,77.557 341.071,85.481 351.967,85.481 C363.004,85.481 371.778,77.133 371.778,64.963 C371.778,52.369 363.005,44.586 351.967,44.586 C341.071,44.586 331.733,52.793 331.733,64.963 Z"></path>
                    <path d="M465.995,65.104 C465.995,85.2 452.268,101.471 429.628,101.471 C406.989,101.471 393.403,85.2 393.403,65.104 C393.403,45.153 407.27,28.739 429.487,28.739 C451.704,28.739 465.995,45.152 465.995,65.104 Z M410.667,65.104 C410.667,75.717 417.036,85.624 429.628,85.624 C442.224,85.624 448.591,75.718 448.591,65.104 C448.591,54.633 441.234,44.446 429.628,44.446 C417.177,44.445 410.667,54.633 410.667,65.104 Z"></path>
                    <path d="M529.507,30.152 L546.061,30.152 L546.061,99.914 L529.789,99.914 L528.941,89.725 C524.978,97.934 514.082,101.895 506.3,102.036 C485.64,102.179 470.359,89.444 470.359,64.964 C470.359,40.909 486.349,28.314 506.724,28.456 C516.064,28.456 524.978,32.843 528.941,39.776 L529.507,30.152 Z M487.62,64.963 C487.62,78.266 496.819,86.188 508.28,86.188 C535.447,86.188 535.447,43.879 508.28,43.879 C496.819,43.879 487.62,51.662 487.62,64.963 Z"></path>
                    <path d="M569.541,30.152 L570.816,38.218 C576.193,29.587 583.408,28.312 590.484,28.312 C597.701,28.312 604.634,31.144 608.455,34.964 L600.674,49.964 C597.137,46.991 593.881,45.435 588.221,45.435 C579.164,45.435 570.817,50.246 570.817,63.123 L570.817,99.914 L553.553,99.914 L553.553,30.152 L569.541,30.152 Z"></path>
                    <path d="M680.33,1.004 L680.33,99.914 L664.201,99.914 L663.068,90.291 C657.691,98.639 649.058,101.471 640.568,101.471 C620.052,101.471 604.627,87.887 604.627,64.963 C604.627,40.908 619.768,28.455 640.145,28.455 C647.502,28.455 658.963,32.418 663.069,39.633 L663.069,1.004 L680.33,1.004 Z M621.891,64.963 C621.891,77.133 630.664,85.481 641.702,85.481 C652.597,85.481 661.936,77.557 661.936,64.963 C661.936,52.793 652.596,44.586 641.702,44.586 C630.664,44.586 621.891,52.369 621.891,64.963 Z"></path>
                    <polygon points="762.537 99.914 762.537 54.914 699.428 54.914 699.428 99.914 691.787 99.914 691.787 0.863 699.428 0.863 699.428 47.98 762.537 47.98 762.537 0.863 770.18 0.863 770.18 99.914"></polygon>
                    <path d="M837.811,99.914 L837.811,87.32 C832.432,96.943 822.668,100.904 812.905,101.047 C794.225,101.047 781.35,89.584 781.35,70.199 L781.35,29.869 L788.284,29.869 L788.284,70.057 C788.284,85.905 798.048,94.395 813.188,94.254 C827.622,94.113 837.668,83.215 837.668,68.783 L837.668,29.869 L844.602,29.869 L844.602,99.914 L837.811,99.914 Z"></path>
                    <path d="M862.566,0.863 L862.566,45.295 C868.224,33.975 879.545,28.879 891.572,28.879 C911.101,28.879 926.666,41.899 926.666,64.963 C926.666,88.168 911.242,101.047 891.715,101.047 C879.828,101.047 868.367,95.102 862.567,84.49 L862.567,99.914 L855.772,99.914 L855.772,0.863 L862.566,0.863 Z M862.705,64.82 C862.705,82.226 874.877,94.254 891.291,94.254 C906.996,94.254 919.873,84.348 919.873,64.963 C919.873,45.295 906.996,35.531 891.291,35.531 C875.158,35.531 862.705,47.418 862.705,64.82 Z"></path>
                </g>
                <path d="M139.104,151.465 L58.809,51.988 L158.286,132.285 C164.147,137.019 165.063,145.605 160.331,151.465 C155.601,157.328 147.013,158.246 141.151,153.514 C140.403,152.908 139.69,152.184 139.104,151.465 Z" id="Shape" fill="#FFFFFF"></path>
                <path d="M70.833,96.92 C68.817,101.981 67.103,107.076 65.968,112.27 C64.739,117.428 63.98,122.643 63.697,127.834 C63.14,138.217 64.23,148.488 67.039,158.125 C72.525,177.447 84.68,193.994 100.451,204.773 C108.295,210.175 116.998,214.117 126.047,216.492 C135.113,218.791 144.514,219.652 153.74,218.763 C162.949,217.88 172.002,215.556 180.283,211.583 C188.599,207.722 196.205,202.392 202.668,195.851 C209.191,189.378 214.549,181.787 218.385,173.456 C222.35,165.181 224.692,156.13 225.549,146.923 C226.451,137.698 225.57,128.306 223.278,119.243 C222.118,114.71 220.508,110.284 218.544,106.003 C216.603,101.71 214.276,97.567 211.564,93.657 C200.787,77.893 184.257,65.741 164.945,60.249 C155.314,57.438 145.043,56.343 134.666,56.895 C129.473,57.176 124.258,57.928 119.102,59.159 C113.903,60.286 108.809,61.999 103.747,64.011 C120.938,50.556 144.485,44.298 167.534,47.173 C179.059,48.597 190.472,52.237 200.889,57.964 C211.321,63.677 220.711,71.405 228.471,80.652 C244.123,99.123 252.43,123.976 251.227,148.593 C250.676,160.909 247.76,173.144 242.791,184.509 C237.752,195.851 230.568,206.239 221.844,215.025 C213.045,223.734 202.672,230.945 191.319,235.953 C179.956,240.914 167.723,243.851 155.411,244.375 C130.794,245.59 105.962,237.254 87.493,221.619 C85.159,219.668 82.989,217.687 80.811,215.467 C80.268,214.912 79.666,214.313 79.25,213.844 L77.764,212.229 C76.764,211.118 75.785,209.981 74.836,208.827 C71.035,204.212 67.648,199.264 64.818,194.042 C59.093,183.632 55.453,172.226 54.029,160.7 C51.149,137.66 57.396,114.121 70.833,96.92 Z" id="Shape" fill="#FFFFFF"></path>
            </g>
        </g>
    </g>
</svg>
